<?xml version="1.0" encoding="UTF-8"?>
<svg xmlns="http://www.w3.org/2000/svg" xmlns:xlink="http://www.w3.org/1999/xlink" width="607.609" height="607.609" viewBox="0 0 607.609 607.609">
<path fill-rule="nonzero" fill="rgb(0%, 0%, 0%)" fill-opacity="1" d="M 303.800781 582.488281 C 229.363281 582.488281 159.378906 553.5 106.742188 500.867188 C 54.101562 448.226562 25.117188 378.25 25.117188 303.808594 C 25.117188 229.367188 54.101562 159.382812 106.742188 106.75 C 159.378906 54.105469 229.363281 25.117188 303.800781 25.117188 C 378.242188 25.117188 448.222656 54.105469 500.863281 106.75 C 553.5 159.382812 582.492188 229.367188 582.492188 303.808594 C 582.492188 378.25 553.5 448.226562 500.863281 500.867188 C 448.222656 553.5 378.242188 582.488281 303.800781 582.488281 M 303.800781 42.617188 C 159.78125 42.617188 42.613281 159.792969 42.613281 303.808594 C 42.613281 447.832031 159.78125 565 303.800781 565 C 447.824219 565 564.992188 447.832031 564.992188 303.808594 C 564.992188 159.792969 447.824219 42.617188 303.800781 42.617188 "/>
<path fill-rule="nonzero" fill="rgb(0%, 0%, 0%)" fill-opacity="1" d="M 298.070312 438.558594 C 290.320312 438.558594 283.300781 441.699219 278.222656 446.78125 C 273.140625 451.855469 270.003906 458.871094 270.003906 466.621094 C 270.003906 482.128906 282.570312 494.6875 298.070312 494.6875 C 313.570312 494.6875 326.140625 482.128906 326.140625 466.621094 C 326.140625 451.128906 313.570312 438.558594 298.070312 438.558594 "/>
<path fill-rule="nonzero" fill="rgb(0%, 0%, 0%)" fill-opacity="1" d="M 421.160156 438.558594 C 413.402344 438.558594 406.390625 441.699219 401.3125 446.78125 C 396.230469 451.855469 393.09375 458.871094 393.09375 466.621094 C 393.09375 482.128906 405.652344 494.6875 421.160156 494.6875 C 436.660156 494.6875 449.222656 482.128906 449.222656 466.621094 C 449.222656 451.128906 436.660156 438.558594 421.160156 438.558594 "/>
<path fill-rule="nonzero" fill="rgb(0%, 0%, 0%)" fill-opacity="1" d="M 488.402344 226.527344 L 232.609375 226.527344 C 231.609375 222.40625 230.621094 218.277344 229.691406 214.15625 C 227.175781 203.175781 220.441406 193.632812 210.941406 187.558594 C 202.472656 182.605469 192.800781 180.089844 182.992188 180.277344 L 171.300781 180.277344 C 171.230469 180.277344 171.175781 180.265625 171.101562 180.265625 L 119.222656 180.265625 C 112.859375 180.265625 107.714844 185.421875 107.714844 191.777344 C 107.714844 198.136719 112.859375 203.292969 119.222656 203.292969 L 182.609375 203.292969 C 188.230469 203.097656 193.78125 204.40625 198.722656 207.089844 C 203.242188 210.15625 206.382812 214.871094 207.492188 220.210938 L 246.992188 369.332031 C 253.449219 394.90625 260.121094 408.9375 272.050781 416.976562 C 282.3125 423.898438 294.800781 425.382812 313.472656 425.382812 C 316.511719 425.382812 319.714844 425.339844 323.101562 425.277344 L 455.070312 425.277344 C 461.425781 425.277344 466.5625 420.136719 466.5625 413.792969 C 466.5625 407.445312 461.425781 402.300781 455.070312 402.300781 L 322.800781 402.300781 C 303.253906 402.621094 291.429688 402.300781 284.800781 397.855469 C 279.121094 393.945312 275.269531 385.777344 271.050781 370.550781 L 458.34375 370.550781 C 463.632812 370.542969 468.222656 366.921875 469.464844 361.777344 L 499.335938 241.558594 C 499.699219 240.40625 499.890625 239.195312 499.890625 237.988281 L 499.890625 237.960938 C 499.871094 231.632812 494.730469 226.515625 488.402344 226.527344 "/>
</svg>
