<?xml version="1.0" encoding="UTF-8"?>
<svg xmlns="http://www.w3.org/2000/svg" xmlns:xlink="http://www.w3.org/1999/xlink" width="175.238" height="184.52" viewBox="0 0 175.238 184.52">
<defs>
<clipPath id="clip-0">
<path clip-rule="nonzero" d="M 0 0 L 175.238281 0 L 175.238281 176 L 0 176 Z M 0 0 "/>
</clipPath>
<clipPath id="clip-1">
<path clip-rule="nonzero" d="M 65 101 L 110 101 L 110 176 L 65 176 Z M 65 101 "/>
</clipPath>
<clipPath id="clip-2">
<path clip-rule="nonzero" d="M 87.617188 0 C 39.226562 0 0 39.226562 0 87.617188 C 0 136.007812 39.226562 175.238281 87.617188 175.238281 C 136.011719 175.238281 175.238281 136.007812 175.238281 87.617188 C 175.238281 39.226562 136.011719 0 87.617188 0 Z M 87.617188 0 "/>
</clipPath>
<clipPath id="clip-3">
<path clip-rule="nonzero" d="M 72 20 L 78 20 L 78 104 L 72 104 Z M 72 20 "/>
</clipPath>
<clipPath id="clip-4">
<path clip-rule="nonzero" d="M 87.617188 0 C 39.226562 0 0 39.226562 0 87.617188 C 0 136.007812 39.226562 175.238281 87.617188 175.238281 C 136.011719 175.238281 175.238281 136.007812 175.238281 87.617188 C 175.238281 39.226562 136.011719 0 87.617188 0 Z M 87.617188 0 "/>
</clipPath>
<clipPath id="clip-5">
<path clip-rule="nonzero" d="M 81 20 L 87 20 L 87 104 L 81 104 Z M 81 20 "/>
</clipPath>
<clipPath id="clip-6">
<path clip-rule="nonzero" d="M 87.617188 0 C 39.226562 0 0 39.226562 0 87.617188 C 0 136.007812 39.226562 175.238281 87.617188 175.238281 C 136.011719 175.238281 175.238281 136.007812 175.238281 87.617188 C 175.238281 39.226562 136.011719 0 87.617188 0 Z M 87.617188 0 "/>
</clipPath>
<clipPath id="clip-7">
<path clip-rule="nonzero" d="M 90 20 L 97 20 L 97 104 L 90 104 Z M 90 20 "/>
</clipPath>
<clipPath id="clip-8">
<path clip-rule="nonzero" d="M 87.617188 0 C 39.226562 0 0 39.226562 0 87.617188 C 0 136.007812 39.226562 175.238281 87.617188 175.238281 C 136.011719 175.238281 175.238281 136.007812 175.238281 87.617188 C 175.238281 39.226562 136.011719 0 87.617188 0 Z M 87.617188 0 "/>
</clipPath>
<clipPath id="clip-9">
<path clip-rule="nonzero" d="M 100 20 L 106 20 L 106 104 L 100 104 Z M 100 20 "/>
</clipPath>
<clipPath id="clip-10">
<path clip-rule="nonzero" d="M 87.617188 0 C 39.226562 0 0 39.226562 0 87.617188 C 0 136.007812 39.226562 175.238281 87.617188 175.238281 C 136.011719 175.238281 175.238281 136.007812 175.238281 87.617188 C 175.238281 39.226562 136.011719 0 87.617188 0 Z M 87.617188 0 "/>
</clipPath>
<clipPath id="clip-11">
<path clip-rule="nonzero" d="M 59 33 L 122 33 L 122 53 L 59 53 Z M 59 33 "/>
</clipPath>
<clipPath id="clip-12">
<path clip-rule="nonzero" d="M 87.617188 0 C 39.226562 0 0 39.226562 0 87.617188 C 0 136.007812 39.226562 175.238281 87.617188 175.238281 C 136.011719 175.238281 175.238281 136.007812 175.238281 87.617188 C 175.238281 39.226562 136.011719 0 87.617188 0 Z M 87.617188 0 "/>
</clipPath>
<clipPath id="clip-13">
<path clip-rule="nonzero" d="M 58 32 L 123 32 L 123 54 L 58 54 Z M 58 32 "/>
</clipPath>
<clipPath id="clip-14">
<path clip-rule="nonzero" d="M 87.617188 0 C 39.226562 0 0 39.226562 0 87.617188 C 0 136.007812 39.226562 175.238281 87.617188 175.238281 C 136.011719 175.238281 175.238281 136.007812 175.238281 87.617188 C 175.238281 39.226562 136.011719 0 87.617188 0 Z M 87.617188 0 "/>
</clipPath>
<clipPath id="clip-15">
<path clip-rule="nonzero" d="M 87 35 L 112 35 L 112 42 L 87 42 Z M 87 35 "/>
</clipPath>
<clipPath id="clip-16">
<path clip-rule="nonzero" d="M 87.617188 0 C 39.226562 0 0 39.226562 0 87.617188 C 0 136.007812 39.226562 175.238281 87.617188 175.238281 C 136.011719 175.238281 175.238281 136.007812 175.238281 87.617188 C 175.238281 39.226562 136.011719 0 87.617188 0 Z M 87.617188 0 "/>
</clipPath>
<clipPath id="clip-17">
<path clip-rule="nonzero" d="M 86 34 L 113 34 L 113 43 L 86 43 Z M 86 34 "/>
</clipPath>
<clipPath id="clip-18">
<path clip-rule="nonzero" d="M 87.617188 0 C 39.226562 0 0 39.226562 0 87.617188 C 0 136.007812 39.226562 175.238281 87.617188 175.238281 C 136.011719 175.238281 175.238281 136.007812 175.238281 87.617188 C 175.238281 39.226562 136.011719 0 87.617188 0 Z M 87.617188 0 "/>
</clipPath>
<clipPath id="clip-19">
<path clip-rule="nonzero" d="M 99 40 L 114 40 L 114 47 L 99 47 Z M 99 40 "/>
</clipPath>
<clipPath id="clip-20">
<path clip-rule="nonzero" d="M 87.617188 0 C 39.226562 0 0 39.226562 0 87.617188 C 0 136.007812 39.226562 175.238281 87.617188 175.238281 C 136.011719 175.238281 175.238281 136.007812 175.238281 87.617188 C 175.238281 39.226562 136.011719 0 87.617188 0 Z M 87.617188 0 "/>
</clipPath>
<clipPath id="clip-21">
<path clip-rule="nonzero" d="M 99 40 L 115 40 L 115 47 L 99 47 Z M 99 40 "/>
</clipPath>
<clipPath id="clip-22">
<path clip-rule="nonzero" d="M 87.617188 0 C 39.226562 0 0 39.226562 0 87.617188 C 0 136.007812 39.226562 175.238281 87.617188 175.238281 C 136.011719 175.238281 175.238281 136.007812 175.238281 87.617188 C 175.238281 39.226562 136.011719 0 87.617188 0 Z M 87.617188 0 "/>
</clipPath>
<clipPath id="clip-23">
<path clip-rule="nonzero" d="M 57 48 L 110 48 L 110 57 L 57 57 Z M 57 48 "/>
</clipPath>
<clipPath id="clip-24">
<path clip-rule="nonzero" d="M 87.617188 0 C 39.226562 0 0 39.226562 0 87.617188 C 0 136.007812 39.226562 175.238281 87.617188 175.238281 C 136.011719 175.238281 175.238281 136.007812 175.238281 87.617188 C 175.238281 39.226562 136.011719 0 87.617188 0 Z M 87.617188 0 "/>
</clipPath>
<clipPath id="clip-25">
<path clip-rule="nonzero" d="M 57 47 L 111 47 L 111 58 L 57 58 Z M 57 47 "/>
</clipPath>
<clipPath id="clip-26">
<path clip-rule="nonzero" d="M 87.617188 0 C 39.226562 0 0 39.226562 0 87.617188 C 0 136.007812 39.226562 175.238281 87.617188 175.238281 C 136.011719 175.238281 175.238281 136.007812 175.238281 87.617188 C 175.238281 39.226562 136.011719 0 87.617188 0 Z M 87.617188 0 "/>
</clipPath>
<clipPath id="clip-27">
<path clip-rule="nonzero" d="M 41 55 L 69 55 L 69 68 L 41 68 Z M 41 55 "/>
</clipPath>
<clipPath id="clip-28">
<path clip-rule="nonzero" d="M 87.617188 0 C 39.226562 0 0 39.226562 0 87.617188 C 0 136.007812 39.226562 175.238281 87.617188 175.238281 C 136.011719 175.238281 175.238281 136.007812 175.238281 87.617188 C 175.238281 39.226562 136.011719 0 87.617188 0 Z M 87.617188 0 "/>
</clipPath>
<clipPath id="clip-29">
<path clip-rule="nonzero" d="M 40 54 L 70 54 L 70 69 L 40 69 Z M 40 54 "/>
</clipPath>
<clipPath id="clip-30">
<path clip-rule="nonzero" d="M 87.617188 0 C 39.226562 0 0 39.226562 0 87.617188 C 0 136.007812 39.226562 175.238281 87.617188 175.238281 C 136.011719 175.238281 175.238281 136.007812 175.238281 87.617188 C 175.238281 39.226562 136.011719 0 87.617188 0 Z M 87.617188 0 "/>
</clipPath>
<clipPath id="clip-31">
<path clip-rule="nonzero" d="M 62 54 L 131 54 L 131 65 L 62 65 Z M 62 54 "/>
</clipPath>
<clipPath id="clip-32">
<path clip-rule="nonzero" d="M 87.617188 0 C 39.226562 0 0 39.226562 0 87.617188 C 0 136.007812 39.226562 175.238281 87.617188 175.238281 C 136.011719 175.238281 175.238281 136.007812 175.238281 87.617188 C 175.238281 39.226562 136.011719 0 87.617188 0 Z M 87.617188 0 "/>
</clipPath>
<clipPath id="clip-33">
<path clip-rule="nonzero" d="M 61 54 L 131 54 L 131 66 L 61 66 Z M 61 54 "/>
</clipPath>
<clipPath id="clip-34">
<path clip-rule="nonzero" d="M 87.617188 0 C 39.226562 0 0 39.226562 0 87.617188 C 0 136.007812 39.226562 175.238281 87.617188 175.238281 C 136.011719 175.238281 175.238281 136.007812 175.238281 87.617188 C 175.238281 39.226562 136.011719 0 87.617188 0 Z M 87.617188 0 "/>
</clipPath>
<clipPath id="clip-35">
<path clip-rule="nonzero" d="M 67 55 L 125 55 L 125 60 L 67 60 Z M 67 55 "/>
</clipPath>
<clipPath id="clip-36">
<path clip-rule="nonzero" d="M 87.617188 0 C 39.226562 0 0 39.226562 0 87.617188 C 0 136.007812 39.226562 175.238281 87.617188 175.238281 C 136.011719 175.238281 175.238281 136.007812 175.238281 87.617188 C 175.238281 39.226562 136.011719 0 87.617188 0 Z M 87.617188 0 "/>
</clipPath>
<clipPath id="clip-37">
<path clip-rule="nonzero" d="M 66 54 L 126 54 L 126 61 L 66 61 Z M 66 54 "/>
</clipPath>
<clipPath id="clip-38">
<path clip-rule="nonzero" d="M 87.617188 0 C 39.226562 0 0 39.226562 0 87.617188 C 0 136.007812 39.226562 175.238281 87.617188 175.238281 C 136.011719 175.238281 175.238281 136.007812 175.238281 87.617188 C 175.238281 39.226562 136.011719 0 87.617188 0 Z M 87.617188 0 "/>
</clipPath>
<clipPath id="clip-39">
<path clip-rule="nonzero" d="M 102 50 L 125 50 L 125 57 L 102 57 Z M 102 50 "/>
</clipPath>
<clipPath id="clip-40">
<path clip-rule="nonzero" d="M 87.617188 0 C 39.226562 0 0 39.226562 0 87.617188 C 0 136.007812 39.226562 175.238281 87.617188 175.238281 C 136.011719 175.238281 175.238281 136.007812 175.238281 87.617188 C 175.238281 39.226562 136.011719 0 87.617188 0 Z M 87.617188 0 "/>
</clipPath>
<clipPath id="clip-41">
<path clip-rule="nonzero" d="M 102 49 L 126 49 L 126 57 L 102 57 Z M 102 49 "/>
</clipPath>
<clipPath id="clip-42">
<path clip-rule="nonzero" d="M 87.617188 0 C 39.226562 0 0 39.226562 0 87.617188 C 0 136.007812 39.226562 175.238281 87.617188 175.238281 C 136.011719 175.238281 175.238281 136.007812 175.238281 87.617188 C 175.238281 39.226562 136.011719 0 87.617188 0 Z M 87.617188 0 "/>
</clipPath>
<clipPath id="clip-43">
<path clip-rule="nonzero" d="M 48 38 L 87 38 L 87 59 L 48 59 Z M 48 38 "/>
</clipPath>
<clipPath id="clip-44">
<path clip-rule="nonzero" d="M 87.617188 0 C 39.226562 0 0 39.226562 0 87.617188 C 0 136.007812 39.226562 175.238281 87.617188 175.238281 C 136.011719 175.238281 175.238281 136.007812 175.238281 87.617188 C 175.238281 39.226562 136.011719 0 87.617188 0 Z M 87.617188 0 "/>
</clipPath>
<clipPath id="clip-45">
<path clip-rule="nonzero" d="M 47 38 L 88 38 L 88 60 L 47 60 Z M 47 38 "/>
</clipPath>
<clipPath id="clip-46">
<path clip-rule="nonzero" d="M 87.617188 0 C 39.226562 0 0 39.226562 0 87.617188 C 0 136.007812 39.226562 175.238281 87.617188 175.238281 C 136.011719 175.238281 175.238281 136.007812 175.238281 87.617188 C 175.238281 39.226562 136.011719 0 87.617188 0 Z M 87.617188 0 "/>
</clipPath>
<clipPath id="clip-47">
<path clip-rule="nonzero" d="M 53 42 L 87 42 L 87 54 L 53 54 Z M 53 42 "/>
</clipPath>
<clipPath id="clip-48">
<path clip-rule="nonzero" d="M 87.617188 0 C 39.226562 0 0 39.226562 0 87.617188 C 0 136.007812 39.226562 175.238281 87.617188 175.238281 C 136.011719 175.238281 175.238281 136.007812 175.238281 87.617188 C 175.238281 39.226562 136.011719 0 87.617188 0 Z M 87.617188 0 "/>
</clipPath>
<clipPath id="clip-49">
<path clip-rule="nonzero" d="M 52 41 L 88 41 L 88 55 L 52 55 Z M 52 41 "/>
</clipPath>
<clipPath id="clip-50">
<path clip-rule="nonzero" d="M 87.617188 0 C 39.226562 0 0 39.226562 0 87.617188 C 0 136.007812 39.226562 175.238281 87.617188 175.238281 C 136.011719 175.238281 175.238281 136.007812 175.238281 87.617188 C 175.238281 39.226562 136.011719 0 87.617188 0 Z M 87.617188 0 "/>
</clipPath>
<clipPath id="clip-51">
<path clip-rule="nonzero" d="M 61 45 L 104 45 L 104 52 L 61 52 Z M 61 45 "/>
</clipPath>
<clipPath id="clip-52">
<path clip-rule="nonzero" d="M 87.617188 0 C 39.226562 0 0 39.226562 0 87.617188 C 0 136.007812 39.226562 175.238281 87.617188 175.238281 C 136.011719 175.238281 175.238281 136.007812 175.238281 87.617188 C 175.238281 39.226562 136.011719 0 87.617188 0 Z M 87.617188 0 "/>
</clipPath>
<clipPath id="clip-53">
<path clip-rule="nonzero" d="M 60 44 L 104 44 L 104 53 L 60 53 Z M 60 44 "/>
</clipPath>
<clipPath id="clip-54">
<path clip-rule="nonzero" d="M 87.617188 0 C 39.226562 0 0 39.226562 0 87.617188 C 0 136.007812 39.226562 175.238281 87.617188 175.238281 C 136.011719 175.238281 175.238281 136.007812 175.238281 87.617188 C 175.238281 39.226562 136.011719 0 87.617188 0 Z M 87.617188 0 "/>
</clipPath>
<clipPath id="clip-55">
<path clip-rule="nonzero" d="M 72 42 L 87 42 L 87 49 L 72 49 Z M 72 42 "/>
</clipPath>
<clipPath id="clip-56">
<path clip-rule="nonzero" d="M 87.617188 0 C 39.226562 0 0 39.226562 0 87.617188 C 0 136.007812 39.226562 175.238281 87.617188 175.238281 C 136.011719 175.238281 175.238281 136.007812 175.238281 87.617188 C 175.238281 39.226562 136.011719 0 87.617188 0 Z M 87.617188 0 "/>
</clipPath>
<clipPath id="clip-57">
<path clip-rule="nonzero" d="M 71 42 L 88 42 L 88 50 L 71 50 Z M 71 42 "/>
</clipPath>
<clipPath id="clip-58">
<path clip-rule="nonzero" d="M 87.617188 0 C 39.226562 0 0 39.226562 0 87.617188 C 0 136.007812 39.226562 175.238281 87.617188 175.238281 C 136.011719 175.238281 175.238281 136.007812 175.238281 87.617188 C 175.238281 39.226562 136.011719 0 87.617188 0 Z M 87.617188 0 "/>
</clipPath>
<clipPath id="clip-59">
<path clip-rule="nonzero" d="M 78 42 L 92 42 L 92 49 L 78 49 Z M 78 42 "/>
</clipPath>
<clipPath id="clip-60">
<path clip-rule="nonzero" d="M 87.617188 0 C 39.226562 0 0 39.226562 0 87.617188 C 0 136.007812 39.226562 175.238281 87.617188 175.238281 C 136.011719 175.238281 175.238281 136.007812 175.238281 87.617188 C 175.238281 39.226562 136.011719 0 87.617188 0 Z M 87.617188 0 "/>
</clipPath>
<clipPath id="clip-61">
<path clip-rule="nonzero" d="M 77 42 L 93 42 L 93 50 L 77 50 Z M 77 42 "/>
</clipPath>
<clipPath id="clip-62">
<path clip-rule="nonzero" d="M 87.617188 0 C 39.226562 0 0 39.226562 0 87.617188 C 0 136.007812 39.226562 175.238281 87.617188 175.238281 C 136.011719 175.238281 175.238281 136.007812 175.238281 87.617188 C 175.238281 39.226562 136.011719 0 87.617188 0 Z M 87.617188 0 "/>
</clipPath>
<clipPath id="clip-63">
<path clip-rule="nonzero" d="M 62 59 L 130 59 L 130 70 L 62 70 Z M 62 59 "/>
</clipPath>
<clipPath id="clip-64">
<path clip-rule="nonzero" d="M 87.617188 0 C 39.226562 0 0 39.226562 0 87.617188 C 0 136.007812 39.226562 175.238281 87.617188 175.238281 C 136.011719 175.238281 175.238281 136.007812 175.238281 87.617188 C 175.238281 39.226562 136.011719 0 87.617188 0 Z M 87.617188 0 "/>
</clipPath>
<clipPath id="clip-65">
<path clip-rule="nonzero" d="M 61 58 L 131 58 L 131 70 L 61 70 Z M 61 58 "/>
</clipPath>
<clipPath id="clip-66">
<path clip-rule="nonzero" d="M 87.617188 0 C 39.226562 0 0 39.226562 0 87.617188 C 0 136.007812 39.226562 175.238281 87.617188 175.238281 C 136.011719 175.238281 175.238281 136.007812 175.238281 87.617188 C 175.238281 39.226562 136.011719 0 87.617188 0 Z M 87.617188 0 "/>
</clipPath>
<clipPath id="clip-67">
<path clip-rule="nonzero" d="M 46 61 L 72 61 L 72 68 L 46 68 Z M 46 61 "/>
</clipPath>
<clipPath id="clip-68">
<path clip-rule="nonzero" d="M 87.617188 0 C 39.226562 0 0 39.226562 0 87.617188 C 0 136.007812 39.226562 175.238281 87.617188 175.238281 C 136.011719 175.238281 175.238281 136.007812 175.238281 87.617188 C 175.238281 39.226562 136.011719 0 87.617188 0 Z M 87.617188 0 "/>
</clipPath>
<clipPath id="clip-69">
<path clip-rule="nonzero" d="M 46 60 L 73 60 L 73 69 L 46 69 Z M 46 60 "/>
</clipPath>
<clipPath id="clip-70">
<path clip-rule="nonzero" d="M 87.617188 0 C 39.226562 0 0 39.226562 0 87.617188 C 0 136.007812 39.226562 175.238281 87.617188 175.238281 C 136.011719 175.238281 175.238281 136.007812 175.238281 87.617188 C 175.238281 39.226562 136.011719 0 87.617188 0 Z M 87.617188 0 "/>
</clipPath>
<clipPath id="clip-71">
<path clip-rule="nonzero" d="M 40 86 L 92 86 L 92 103 L 40 103 Z M 40 86 "/>
</clipPath>
<clipPath id="clip-72">
<path clip-rule="nonzero" d="M 87.617188 0 C 39.226562 0 0 39.226562 0 87.617188 C 0 136.007812 39.226562 175.238281 87.617188 175.238281 C 136.011719 175.238281 175.238281 136.007812 175.238281 87.617188 C 175.238281 39.226562 136.011719 0 87.617188 0 Z M 87.617188 0 "/>
</clipPath>
<clipPath id="clip-73">
<path clip-rule="nonzero" d="M 39 85 L 93 85 L 93 103 L 39 103 Z M 39 85 "/>
</clipPath>
<clipPath id="clip-74">
<path clip-rule="nonzero" d="M 87.617188 0 C 39.226562 0 0 39.226562 0 87.617188 C 0 136.007812 39.226562 175.238281 87.617188 175.238281 C 136.011719 175.238281 175.238281 136.007812 175.238281 87.617188 C 175.238281 39.226562 136.011719 0 87.617188 0 Z M 87.617188 0 "/>
</clipPath>
<clipPath id="clip-75">
<path clip-rule="nonzero" d="M 81 79 L 143 79 L 143 97 L 81 97 Z M 81 79 "/>
</clipPath>
<clipPath id="clip-76">
<path clip-rule="nonzero" d="M 87.617188 0 C 39.226562 0 0 39.226562 0 87.617188 C 0 136.007812 39.226562 175.238281 87.617188 175.238281 C 136.011719 175.238281 175.238281 136.007812 175.238281 87.617188 C 175.238281 39.226562 136.011719 0 87.617188 0 Z M 87.617188 0 "/>
</clipPath>
<clipPath id="clip-77">
<path clip-rule="nonzero" d="M 81 78 L 143 78 L 143 98 L 81 98 Z M 81 78 "/>
</clipPath>
<clipPath id="clip-78">
<path clip-rule="nonzero" d="M 87.617188 0 C 39.226562 0 0 39.226562 0 87.617188 C 0 136.007812 39.226562 175.238281 87.617188 175.238281 C 136.011719 175.238281 175.238281 136.007812 175.238281 87.617188 C 175.238281 39.226562 136.011719 0 87.617188 0 Z M 87.617188 0 "/>
</clipPath>
<clipPath id="clip-79">
<path clip-rule="nonzero" d="M 90 92 L 137 92 L 137 103 L 90 103 Z M 90 92 "/>
</clipPath>
<clipPath id="clip-80">
<path clip-rule="nonzero" d="M 87.617188 0 C 39.226562 0 0 39.226562 0 87.617188 C 0 136.007812 39.226562 175.238281 87.617188 175.238281 C 136.011719 175.238281 175.238281 136.007812 175.238281 87.617188 C 175.238281 39.226562 136.011719 0 87.617188 0 Z M 87.617188 0 "/>
</clipPath>
<clipPath id="clip-81">
<path clip-rule="nonzero" d="M 90 91 L 138 91 L 138 104 L 90 104 Z M 90 91 "/>
</clipPath>
<clipPath id="clip-82">
<path clip-rule="nonzero" d="M 87.617188 0 C 39.226562 0 0 39.226562 0 87.617188 C 0 136.007812 39.226562 175.238281 87.617188 175.238281 C 136.011719 175.238281 175.238281 136.007812 175.238281 87.617188 C 175.238281 39.226562 136.011719 0 87.617188 0 Z M 87.617188 0 "/>
</clipPath>
<clipPath id="clip-83">
<path clip-rule="nonzero" d="M 112 85 L 141 85 L 141 95 L 112 95 Z M 112 85 "/>
</clipPath>
<clipPath id="clip-84">
<path clip-rule="nonzero" d="M 87.617188 0 C 39.226562 0 0 39.226562 0 87.617188 C 0 136.007812 39.226562 175.238281 87.617188 175.238281 C 136.011719 175.238281 175.238281 136.007812 175.238281 87.617188 C 175.238281 39.226562 136.011719 0 87.617188 0 Z M 87.617188 0 "/>
</clipPath>
<clipPath id="clip-85">
<path clip-rule="nonzero" d="M 111 84 L 141 84 L 141 95 L 111 95 Z M 111 84 "/>
</clipPath>
<clipPath id="clip-86">
<path clip-rule="nonzero" d="M 87.617188 0 C 39.226562 0 0 39.226562 0 87.617188 C 0 136.007812 39.226562 175.238281 87.617188 175.238281 C 136.011719 175.238281 175.238281 136.007812 175.238281 87.617188 C 175.238281 39.226562 136.011719 0 87.617188 0 Z M 87.617188 0 "/>
</clipPath>
<clipPath id="clip-87">
<path clip-rule="nonzero" d="M 103 90 L 138 90 L 138 98 L 103 98 Z M 103 90 "/>
</clipPath>
<clipPath id="clip-88">
<path clip-rule="nonzero" d="M 87.617188 0 C 39.226562 0 0 39.226562 0 87.617188 C 0 136.007812 39.226562 175.238281 87.617188 175.238281 C 136.011719 175.238281 175.238281 136.007812 175.238281 87.617188 C 175.238281 39.226562 136.011719 0 87.617188 0 Z M 87.617188 0 "/>
</clipPath>
<clipPath id="clip-89">
<path clip-rule="nonzero" d="M 102 89 L 139 89 L 139 99 L 102 99 Z M 102 89 "/>
</clipPath>
<clipPath id="clip-90">
<path clip-rule="nonzero" d="M 87.617188 0 C 39.226562 0 0 39.226562 0 87.617188 C 0 136.007812 39.226562 175.238281 87.617188 175.238281 C 136.011719 175.238281 175.238281 136.007812 175.238281 87.617188 C 175.238281 39.226562 136.011719 0 87.617188 0 Z M 87.617188 0 "/>
</clipPath>
<clipPath id="clip-91">
<path clip-rule="nonzero" d="M 56 81 L 118 81 L 118 91 L 56 91 Z M 56 81 "/>
</clipPath>
<clipPath id="clip-92">
<path clip-rule="nonzero" d="M 87.617188 0 C 39.226562 0 0 39.226562 0 87.617188 C 0 136.007812 39.226562 175.238281 87.617188 175.238281 C 136.011719 175.238281 175.238281 136.007812 175.238281 87.617188 C 175.238281 39.226562 136.011719 0 87.617188 0 Z M 87.617188 0 "/>
</clipPath>
<clipPath id="clip-93">
<path clip-rule="nonzero" d="M 56 80 L 119 80 L 119 92 L 56 92 Z M 56 80 "/>
</clipPath>
<clipPath id="clip-94">
<path clip-rule="nonzero" d="M 87.617188 0 C 39.226562 0 0 39.226562 0 87.617188 C 0 136.007812 39.226562 175.238281 87.617188 175.238281 C 136.011719 175.238281 175.238281 136.007812 175.238281 87.617188 C 175.238281 39.226562 136.011719 0 87.617188 0 Z M 87.617188 0 "/>
</clipPath>
<clipPath id="clip-95">
<path clip-rule="nonzero" d="M 84 78 L 127 78 L 127 85 L 84 85 Z M 84 78 "/>
</clipPath>
<clipPath id="clip-96">
<path clip-rule="nonzero" d="M 87.617188 0 C 39.226562 0 0 39.226562 0 87.617188 C 0 136.007812 39.226562 175.238281 87.617188 175.238281 C 136.011719 175.238281 175.238281 136.007812 175.238281 87.617188 C 175.238281 39.226562 136.011719 0 87.617188 0 Z M 87.617188 0 "/>
</clipPath>
<clipPath id="clip-97">
<path clip-rule="nonzero" d="M 84 77 L 128 77 L 128 86 L 84 86 Z M 84 77 "/>
</clipPath>
<clipPath id="clip-98">
<path clip-rule="nonzero" d="M 87.617188 0 C 39.226562 0 0 39.226562 0 87.617188 C 0 136.007812 39.226562 175.238281 87.617188 175.238281 C 136.011719 175.238281 175.238281 136.007812 175.238281 87.617188 C 175.238281 39.226562 136.011719 0 87.617188 0 Z M 87.617188 0 "/>
</clipPath>
<clipPath id="clip-99">
<path clip-rule="nonzero" d="M 65 71 L 140 71 L 140 85 L 65 85 Z M 65 71 "/>
</clipPath>
<clipPath id="clip-100">
<path clip-rule="nonzero" d="M 87.617188 0 C 39.226562 0 0 39.226562 0 87.617188 C 0 136.007812 39.226562 175.238281 87.617188 175.238281 C 136.011719 175.238281 175.238281 136.007812 175.238281 87.617188 C 175.238281 39.226562 136.011719 0 87.617188 0 Z M 87.617188 0 "/>
</clipPath>
<clipPath id="clip-101">
<path clip-rule="nonzero" d="M 64 71 L 141 71 L 141 86 L 64 86 Z M 64 71 "/>
</clipPath>
<clipPath id="clip-102">
<path clip-rule="nonzero" d="M 87.617188 0 C 39.226562 0 0 39.226562 0 87.617188 C 0 136.007812 39.226562 175.238281 87.617188 175.238281 C 136.011719 175.238281 175.238281 136.007812 175.238281 87.617188 C 175.238281 39.226562 136.011719 0 87.617188 0 Z M 87.617188 0 "/>
</clipPath>
<clipPath id="clip-103">
<path clip-rule="nonzero" d="M 59 73 L 111 73 L 111 83 L 59 83 Z M 59 73 "/>
</clipPath>
<clipPath id="clip-104">
<path clip-rule="nonzero" d="M 87.617188 0 C 39.226562 0 0 39.226562 0 87.617188 C 0 136.007812 39.226562 175.238281 87.617188 175.238281 C 136.011719 175.238281 175.238281 136.007812 175.238281 87.617188 C 175.238281 39.226562 136.011719 0 87.617188 0 Z M 87.617188 0 "/>
</clipPath>
<clipPath id="clip-105">
<path clip-rule="nonzero" d="M 58 72 L 112 72 L 112 84 L 58 84 Z M 58 72 "/>
</clipPath>
<clipPath id="clip-106">
<path clip-rule="nonzero" d="M 87.617188 0 C 39.226562 0 0 39.226562 0 87.617188 C 0 136.007812 39.226562 175.238281 87.617188 175.238281 C 136.011719 175.238281 175.238281 136.007812 175.238281 87.617188 C 175.238281 39.226562 136.011719 0 87.617188 0 Z M 87.617188 0 "/>
</clipPath>
<clipPath id="clip-107">
<path clip-rule="nonzero" d="M 109 63 L 132 63 L 132 71 L 109 71 Z M 109 63 "/>
</clipPath>
<clipPath id="clip-108">
<path clip-rule="nonzero" d="M 87.617188 0 C 39.226562 0 0 39.226562 0 87.617188 C 0 136.007812 39.226562 175.238281 87.617188 175.238281 C 136.011719 175.238281 175.238281 136.007812 175.238281 87.617188 C 175.238281 39.226562 136.011719 0 87.617188 0 Z M 87.617188 0 "/>
</clipPath>
<clipPath id="clip-109">
<path clip-rule="nonzero" d="M 108 63 L 133 63 L 133 72 L 108 72 Z M 108 63 "/>
</clipPath>
<clipPath id="clip-110">
<path clip-rule="nonzero" d="M 87.617188 0 C 39.226562 0 0 39.226562 0 87.617188 C 0 136.007812 39.226562 175.238281 87.617188 175.238281 C 136.011719 175.238281 175.238281 136.007812 175.238281 87.617188 C 175.238281 39.226562 136.011719 0 87.617188 0 Z M 87.617188 0 "/>
</clipPath>
<clipPath id="clip-111">
<path clip-rule="nonzero" d="M 120 59 L 131 59 L 131 66 L 120 66 Z M 120 59 "/>
</clipPath>
<clipPath id="clip-112">
<path clip-rule="nonzero" d="M 87.617188 0 C 39.226562 0 0 39.226562 0 87.617188 C 0 136.007812 39.226562 175.238281 87.617188 175.238281 C 136.011719 175.238281 175.238281 136.007812 175.238281 87.617188 C 175.238281 39.226562 136.011719 0 87.617188 0 Z M 87.617188 0 "/>
</clipPath>
<clipPath id="clip-113">
<path clip-rule="nonzero" d="M 119 58 L 132 58 L 132 67 L 119 67 Z M 119 58 "/>
</clipPath>
<clipPath id="clip-114">
<path clip-rule="nonzero" d="M 87.617188 0 C 39.226562 0 0 39.226562 0 87.617188 C 0 136.007812 39.226562 175.238281 87.617188 175.238281 C 136.011719 175.238281 175.238281 136.007812 175.238281 87.617188 C 175.238281 39.226562 136.011719 0 87.617188 0 Z M 87.617188 0 "/>
</clipPath>
<clipPath id="clip-115">
<path clip-rule="nonzero" d="M 60 67 L 130 67 L 130 79 L 60 79 Z M 60 67 "/>
</clipPath>
<clipPath id="clip-116">
<path clip-rule="nonzero" d="M 87.617188 0 C 39.226562 0 0 39.226562 0 87.617188 C 0 136.007812 39.226562 175.238281 87.617188 175.238281 C 136.011719 175.238281 175.238281 136.007812 175.238281 87.617188 C 175.238281 39.226562 136.011719 0 87.617188 0 Z M 87.617188 0 "/>
</clipPath>
<clipPath id="clip-117">
<path clip-rule="nonzero" d="M 60 66 L 131 66 L 131 80 L 60 80 Z M 60 66 "/>
</clipPath>
<clipPath id="clip-118">
<path clip-rule="nonzero" d="M 87.617188 0 C 39.226562 0 0 39.226562 0 87.617188 C 0 136.007812 39.226562 175.238281 87.617188 175.238281 C 136.011719 175.238281 175.238281 136.007812 175.238281 87.617188 C 175.238281 39.226562 136.011719 0 87.617188 0 Z M 87.617188 0 "/>
</clipPath>
<clipPath id="clip-119">
<path clip-rule="nonzero" d="M 41 50 L 52 50 L 52 63 L 41 63 Z M 41 50 "/>
</clipPath>
<clipPath id="clip-120">
<path clip-rule="nonzero" d="M 87.617188 0 C 39.226562 0 0 39.226562 0 87.617188 C 0 136.007812 39.226562 175.238281 87.617188 175.238281 C 136.011719 175.238281 175.238281 136.007812 175.238281 87.617188 C 175.238281 39.226562 136.011719 0 87.617188 0 Z M 87.617188 0 "/>
</clipPath>
<clipPath id="clip-121">
<path clip-rule="nonzero" d="M 40 50 L 52 50 L 52 64 L 40 64 Z M 40 50 "/>
</clipPath>
<clipPath id="clip-122">
<path clip-rule="nonzero" d="M 87.617188 0 C 39.226562 0 0 39.226562 0 87.617188 C 0 136.007812 39.226562 175.238281 87.617188 175.238281 C 136.011719 175.238281 175.238281 136.007812 175.238281 87.617188 C 175.238281 39.226562 136.011719 0 87.617188 0 Z M 87.617188 0 "/>
</clipPath>
<clipPath id="clip-123">
<path clip-rule="nonzero" d="M 40 62 L 57 62 L 57 89 L 40 89 Z M 40 62 "/>
</clipPath>
<clipPath id="clip-124">
<path clip-rule="nonzero" d="M 87.617188 0 C 39.226562 0 0 39.226562 0 87.617188 C 0 136.007812 39.226562 175.238281 87.617188 175.238281 C 136.011719 175.238281 175.238281 136.007812 175.238281 87.617188 C 175.238281 39.226562 136.011719 0 87.617188 0 Z M 87.617188 0 "/>
</clipPath>
<clipPath id="clip-125">
<path clip-rule="nonzero" d="M 39 61 L 58 61 L 58 90 L 39 90 Z M 39 61 "/>
</clipPath>
<clipPath id="clip-126">
<path clip-rule="nonzero" d="M 87.617188 0 C 39.226562 0 0 39.226562 0 87.617188 C 0 136.007812 39.226562 175.238281 87.617188 175.238281 C 136.011719 175.238281 175.238281 136.007812 175.238281 87.617188 C 175.238281 39.226562 136.011719 0 87.617188 0 Z M 87.617188 0 "/>
</clipPath>
<clipPath id="clip-127">
<path clip-rule="nonzero" d="M 47 55 L 54 55 L 54 62 L 47 62 Z M 47 55 "/>
</clipPath>
<clipPath id="clip-128">
<path clip-rule="nonzero" d="M 87.617188 0 C 39.226562 0 0 39.226562 0 87.617188 C 0 136.007812 39.226562 175.238281 87.617188 175.238281 C 136.011719 175.238281 175.238281 136.007812 175.238281 87.617188 C 175.238281 39.226562 136.011719 0 87.617188 0 Z M 87.617188 0 "/>
</clipPath>
<clipPath id="clip-129">
<path clip-rule="nonzero" d="M 46 54 L 55 54 L 55 63 L 46 63 Z M 46 54 "/>
</clipPath>
<clipPath id="clip-130">
<path clip-rule="nonzero" d="M 87.617188 0 C 39.226562 0 0 39.226562 0 87.617188 C 0 136.007812 39.226562 175.238281 87.617188 175.238281 C 136.011719 175.238281 175.238281 136.007812 175.238281 87.617188 C 175.238281 39.226562 136.011719 0 87.617188 0 Z M 87.617188 0 "/>
</clipPath>
<clipPath id="clip-131">
<path clip-rule="nonzero" d="M 46 67 L 57 67 L 57 87 L 46 87 Z M 46 67 "/>
</clipPath>
<clipPath id="clip-132">
<path clip-rule="nonzero" d="M 87.617188 0 C 39.226562 0 0 39.226562 0 87.617188 C 0 136.007812 39.226562 175.238281 87.617188 175.238281 C 136.011719 175.238281 175.238281 136.007812 175.238281 87.617188 C 175.238281 39.226562 136.011719 0 87.617188 0 Z M 87.617188 0 "/>
</clipPath>
<clipPath id="clip-133">
<path clip-rule="nonzero" d="M 45 66 L 58 66 L 58 87 L 45 87 Z M 45 66 "/>
</clipPath>
<clipPath id="clip-134">
<path clip-rule="nonzero" d="M 87.617188 0 C 39.226562 0 0 39.226562 0 87.617188 C 0 136.007812 39.226562 175.238281 87.617188 175.238281 C 136.011719 175.238281 175.238281 136.007812 175.238281 87.617188 C 175.238281 39.226562 136.011719 0 87.617188 0 Z M 87.617188 0 "/>
</clipPath>
<clipPath id="clip-135">
<path clip-rule="nonzero" d="M 50 65 L 84 65 L 84 77 L 50 77 Z M 50 65 "/>
</clipPath>
<clipPath id="clip-136">
<path clip-rule="nonzero" d="M 87.617188 0 C 39.226562 0 0 39.226562 0 87.617188 C 0 136.007812 39.226562 175.238281 87.617188 175.238281 C 136.011719 175.238281 175.238281 136.007812 175.238281 87.617188 C 175.238281 39.226562 136.011719 0 87.617188 0 Z M 87.617188 0 "/>
</clipPath>
<clipPath id="clip-137">
<path clip-rule="nonzero" d="M 49 64 L 84 64 L 84 77 L 49 77 Z M 49 64 "/>
</clipPath>
<clipPath id="clip-138">
<path clip-rule="nonzero" d="M 87.617188 0 C 39.226562 0 0 39.226562 0 87.617188 C 0 136.007812 39.226562 175.238281 87.617188 175.238281 C 136.011719 175.238281 175.238281 136.007812 175.238281 87.617188 C 175.238281 39.226562 136.011719 0 87.617188 0 Z M 87.617188 0 "/>
</clipPath>
<clipPath id="clip-139">
<path clip-rule="nonzero" d="M 52 76 L 62 76 L 62 87 L 52 87 Z M 52 76 "/>
</clipPath>
<clipPath id="clip-140">
<path clip-rule="nonzero" d="M 87.617188 0 C 39.226562 0 0 39.226562 0 87.617188 C 0 136.007812 39.226562 175.238281 87.617188 175.238281 C 136.011719 175.238281 175.238281 136.007812 175.238281 87.617188 C 175.238281 39.226562 136.011719 0 87.617188 0 Z M 87.617188 0 "/>
</clipPath>
<clipPath id="clip-141">
<path clip-rule="nonzero" d="M 24 79 L 50 79 L 50 93 L 24 93 Z M 24 79 "/>
</clipPath>
<clipPath id="clip-142">
<path clip-rule="nonzero" d="M 87.617188 0 C 39.226562 0 0 39.226562 0 87.617188 C 0 136.007812 39.226562 175.238281 87.617188 175.238281 C 136.011719 175.238281 175.238281 136.007812 175.238281 87.617188 C 175.238281 39.226562 136.011719 0 87.617188 0 Z M 87.617188 0 "/>
</clipPath>
<clipPath id="clip-143">
<path clip-rule="nonzero" d="M 24 78 L 50 78 L 50 93 L 24 93 Z M 24 78 "/>
</clipPath>
<clipPath id="clip-144">
<path clip-rule="nonzero" d="M 87.617188 0 C 39.226562 0 0 39.226562 0 87.617188 C 0 136.007812 39.226562 175.238281 87.617188 175.238281 C 136.011719 175.238281 175.238281 136.007812 175.238281 87.617188 C 175.238281 39.226562 136.011719 0 87.617188 0 Z M 87.617188 0 "/>
</clipPath>
<clipPath id="clip-145">
<path clip-rule="nonzero" d="M 40 92 L 90 92 L 90 102 L 40 102 Z M 40 92 "/>
</clipPath>
<clipPath id="clip-146">
<path clip-rule="nonzero" d="M 87.617188 0 C 39.226562 0 0 39.226562 0 87.617188 C 0 136.007812 39.226562 175.238281 87.617188 175.238281 C 136.011719 175.238281 175.238281 136.007812 175.238281 87.617188 C 175.238281 39.226562 136.011719 0 87.617188 0 Z M 87.617188 0 "/>
</clipPath>
<clipPath id="clip-147">
<path clip-rule="nonzero" d="M 39 92 L 91 92 L 91 103 L 39 103 Z M 39 92 "/>
</clipPath>
<clipPath id="clip-148">
<path clip-rule="nonzero" d="M 87.617188 0 C 39.226562 0 0 39.226562 0 87.617188 C 0 136.007812 39.226562 175.238281 87.617188 175.238281 C 136.011719 175.238281 175.238281 136.007812 175.238281 87.617188 C 175.238281 39.226562 136.011719 0 87.617188 0 Z M 87.617188 0 "/>
</clipPath>
<clipPath id="clip-149">
<path clip-rule="nonzero" d="M 61 99 L 111 99 L 111 127 L 61 127 Z M 61 99 "/>
</clipPath>
<clipPath id="clip-150">
<path clip-rule="nonzero" d="M 87.617188 0 C 39.226562 0 0 39.226562 0 87.617188 C 0 136.007812 39.226562 175.238281 87.617188 175.238281 C 136.011719 175.238281 175.238281 136.007812 175.238281 87.617188 C 175.238281 39.226562 136.011719 0 87.617188 0 Z M 87.617188 0 "/>
</clipPath>
<clipPath id="clip-151">
<path clip-rule="nonzero" d="M 61 98 L 112 98 L 112 128 L 61 128 Z M 61 98 "/>
</clipPath>
<clipPath id="clip-152">
<path clip-rule="nonzero" d="M 87.617188 0 C 39.226562 0 0 39.226562 0 87.617188 C 0 136.007812 39.226562 175.238281 87.617188 175.238281 C 136.011719 175.238281 175.238281 136.007812 175.238281 87.617188 C 175.238281 39.226562 136.011719 0 87.617188 0 Z M 87.617188 0 "/>
</clipPath>
<clipPath id="clip-153">
<path clip-rule="nonzero" d="M 72 97 L 131 97 L 131 105 L 72 105 Z M 72 97 "/>
</clipPath>
<clipPath id="clip-154">
<path clip-rule="nonzero" d="M 87.617188 0 C 39.226562 0 0 39.226562 0 87.617188 C 0 136.007812 39.226562 175.238281 87.617188 175.238281 C 136.011719 175.238281 175.238281 136.007812 175.238281 87.617188 C 175.238281 39.226562 136.011719 0 87.617188 0 Z M 87.617188 0 "/>
</clipPath>
<clipPath id="clip-155">
<path clip-rule="nonzero" d="M 71 96 L 131 96 L 131 106 L 71 106 Z M 71 96 "/>
</clipPath>
<clipPath id="clip-156">
<path clip-rule="nonzero" d="M 87.617188 0 C 39.226562 0 0 39.226562 0 87.617188 C 0 136.007812 39.226562 175.238281 87.617188 175.238281 C 136.011719 175.238281 175.238281 136.007812 175.238281 87.617188 C 175.238281 39.226562 136.011719 0 87.617188 0 Z M 87.617188 0 "/>
</clipPath>
<clipPath id="clip-157">
<path clip-rule="nonzero" d="M 91 101 L 131 101 L 131 110 L 91 110 Z M 91 101 "/>
</clipPath>
<clipPath id="clip-158">
<path clip-rule="nonzero" d="M 87.617188 0 C 39.226562 0 0 39.226562 0 87.617188 C 0 136.007812 39.226562 175.238281 87.617188 175.238281 C 136.011719 175.238281 175.238281 136.007812 175.238281 87.617188 C 175.238281 39.226562 136.011719 0 87.617188 0 Z M 87.617188 0 "/>
</clipPath>
<clipPath id="clip-159">
<path clip-rule="nonzero" d="M 90 101 L 132 101 L 132 111 L 90 111 Z M 90 101 "/>
</clipPath>
<clipPath id="clip-160">
<path clip-rule="nonzero" d="M 87.617188 0 C 39.226562 0 0 39.226562 0 87.617188 C 0 136.007812 39.226562 175.238281 87.617188 175.238281 C 136.011719 175.238281 175.238281 136.007812 175.238281 87.617188 C 175.238281 39.226562 136.011719 0 87.617188 0 Z M 87.617188 0 "/>
</clipPath>
<clipPath id="clip-161">
<path clip-rule="nonzero" d="M 97 107 L 122 107 L 122 126 L 97 126 Z M 97 107 "/>
</clipPath>
<clipPath id="clip-162">
<path clip-rule="nonzero" d="M 87.617188 0 C 39.226562 0 0 39.226562 0 87.617188 C 0 136.007812 39.226562 175.238281 87.617188 175.238281 C 136.011719 175.238281 175.238281 136.007812 175.238281 87.617188 C 175.238281 39.226562 136.011719 0 87.617188 0 Z M 87.617188 0 "/>
</clipPath>
<clipPath id="clip-163">
<path clip-rule="nonzero" d="M 97 107 L 123 107 L 123 127 L 97 127 Z M 97 107 "/>
</clipPath>
<clipPath id="clip-164">
<path clip-rule="nonzero" d="M 87.617188 0 C 39.226562 0 0 39.226562 0 87.617188 C 0 136.007812 39.226562 175.238281 87.617188 175.238281 C 136.011719 175.238281 175.238281 136.007812 175.238281 87.617188 C 175.238281 39.226562 136.011719 0 87.617188 0 Z M 87.617188 0 "/>
</clipPath>
<clipPath id="clip-165">
<path clip-rule="nonzero" d="M 97 106 L 133 106 L 133 116 L 97 116 Z M 97 106 "/>
</clipPath>
<clipPath id="clip-166">
<path clip-rule="nonzero" d="M 87.617188 0 C 39.226562 0 0 39.226562 0 87.617188 C 0 136.007812 39.226562 175.238281 87.617188 175.238281 C 136.011719 175.238281 175.238281 136.007812 175.238281 87.617188 C 175.238281 39.226562 136.011719 0 87.617188 0 Z M 87.617188 0 "/>
</clipPath>
<clipPath id="clip-167">
<path clip-rule="nonzero" d="M 96 105 L 134 105 L 134 117 L 96 117 Z M 96 105 "/>
</clipPath>
<clipPath id="clip-168">
<path clip-rule="nonzero" d="M 87.617188 0 C 39.226562 0 0 39.226562 0 87.617188 C 0 136.007812 39.226562 175.238281 87.617188 175.238281 C 136.011719 175.238281 175.238281 136.007812 175.238281 87.617188 C 175.238281 39.226562 136.011719 0 87.617188 0 Z M 87.617188 0 "/>
</clipPath>
<clipPath id="clip-169">
<path clip-rule="nonzero" d="M 54 110 L 99 110 L 99 131 L 54 131 Z M 54 110 "/>
</clipPath>
<clipPath id="clip-170">
<path clip-rule="nonzero" d="M 87.617188 0 C 39.226562 0 0 39.226562 0 87.617188 C 0 136.007812 39.226562 175.238281 87.617188 175.238281 C 136.011719 175.238281 175.238281 136.007812 175.238281 87.617188 C 175.238281 39.226562 136.011719 0 87.617188 0 Z M 87.617188 0 "/>
</clipPath>
<clipPath id="clip-171">
<path clip-rule="nonzero" d="M 54 109 L 100 109 L 100 131 L 54 131 Z M 54 109 "/>
</clipPath>
<clipPath id="clip-172">
<path clip-rule="nonzero" d="M 87.617188 0 C 39.226562 0 0 39.226562 0 87.617188 C 0 136.007812 39.226562 175.238281 87.617188 175.238281 C 136.011719 175.238281 175.238281 136.007812 175.238281 87.617188 C 175.238281 39.226562 136.011719 0 87.617188 0 Z M 87.617188 0 "/>
</clipPath>
<clipPath id="clip-173">
<path clip-rule="nonzero" d="M 36 101 L 80 101 L 80 113 L 36 113 Z M 36 101 "/>
</clipPath>
<clipPath id="clip-174">
<path clip-rule="nonzero" d="M 87.617188 0 C 39.226562 0 0 39.226562 0 87.617188 C 0 136.007812 39.226562 175.238281 87.617188 175.238281 C 136.011719 175.238281 175.238281 136.007812 175.238281 87.617188 C 175.238281 39.226562 136.011719 0 87.617188 0 Z M 87.617188 0 "/>
</clipPath>
<clipPath id="clip-175">
<path clip-rule="nonzero" d="M 35 100 L 81 100 L 81 114 L 35 114 Z M 35 100 "/>
</clipPath>
<clipPath id="clip-176">
<path clip-rule="nonzero" d="M 87.617188 0 C 39.226562 0 0 39.226562 0 87.617188 C 0 136.007812 39.226562 175.238281 87.617188 175.238281 C 136.011719 175.238281 175.238281 136.007812 175.238281 87.617188 C 175.238281 39.226562 136.011719 0 87.617188 0 Z M 87.617188 0 "/>
</clipPath>
<clipPath id="clip-177">
<path clip-rule="nonzero" d="M 52 105 L 92 105 L 92 113 L 52 113 Z M 52 105 "/>
</clipPath>
<clipPath id="clip-178">
<path clip-rule="nonzero" d="M 87.617188 0 C 39.226562 0 0 39.226562 0 87.617188 C 0 136.007812 39.226562 175.238281 87.617188 175.238281 C 136.011719 175.238281 175.238281 136.007812 175.238281 87.617188 C 175.238281 39.226562 136.011719 0 87.617188 0 Z M 87.617188 0 "/>
</clipPath>
<clipPath id="clip-179">
<path clip-rule="nonzero" d="M 51 104 L 92 104 L 92 113 L 51 113 Z M 51 104 "/>
</clipPath>
<clipPath id="clip-180">
<path clip-rule="nonzero" d="M 87.617188 0 C 39.226562 0 0 39.226562 0 87.617188 C 0 136.007812 39.226562 175.238281 87.617188 175.238281 C 136.011719 175.238281 175.238281 136.007812 175.238281 87.617188 C 175.238281 39.226562 136.011719 0 87.617188 0 Z M 87.617188 0 "/>
</clipPath>
<clipPath id="clip-181">
<path clip-rule="nonzero" d="M 50 108 L 79 108 L 79 115 L 50 115 Z M 50 108 "/>
</clipPath>
<clipPath id="clip-182">
<path clip-rule="nonzero" d="M 87.617188 0 C 39.226562 0 0 39.226562 0 87.617188 C 0 136.007812 39.226562 175.238281 87.617188 175.238281 C 136.011719 175.238281 175.238281 136.007812 175.238281 87.617188 C 175.238281 39.226562 136.011719 0 87.617188 0 Z M 87.617188 0 "/>
</clipPath>
<clipPath id="clip-183">
<path clip-rule="nonzero" d="M 49 107 L 80 107 L 80 116 L 49 116 Z M 49 107 "/>
</clipPath>
<clipPath id="clip-184">
<path clip-rule="nonzero" d="M 87.617188 0 C 39.226562 0 0 39.226562 0 87.617188 C 0 136.007812 39.226562 175.238281 87.617188 175.238281 C 136.011719 175.238281 175.238281 136.007812 175.238281 87.617188 C 175.238281 39.226562 136.011719 0 87.617188 0 Z M 87.617188 0 "/>
</clipPath>
<clipPath id="clip-185">
<path clip-rule="nonzero" d="M 37 97 L 69 97 L 69 104 L 37 104 Z M 37 97 "/>
</clipPath>
<clipPath id="clip-186">
<path clip-rule="nonzero" d="M 87.617188 0 C 39.226562 0 0 39.226562 0 87.617188 C 0 136.007812 39.226562 175.238281 87.617188 175.238281 C 136.011719 175.238281 175.238281 136.007812 175.238281 87.617188 C 175.238281 39.226562 136.011719 0 87.617188 0 Z M 87.617188 0 "/>
</clipPath>
<clipPath id="clip-187">
<path clip-rule="nonzero" d="M 37 97 L 69 97 L 69 105 L 37 105 Z M 37 97 "/>
</clipPath>
<clipPath id="clip-188">
<path clip-rule="nonzero" d="M 87.617188 0 C 39.226562 0 0 39.226562 0 87.617188 C 0 136.007812 39.226562 175.238281 87.617188 175.238281 C 136.011719 175.238281 175.238281 136.007812 175.238281 87.617188 C 175.238281 39.226562 136.011719 0 87.617188 0 Z M 87.617188 0 "/>
</clipPath>
<clipPath id="clip-189">
<path clip-rule="nonzero" d="M 119 111 L 130 111 L 130 120 L 119 120 Z M 119 111 "/>
</clipPath>
<clipPath id="clip-190">
<path clip-rule="nonzero" d="M 87.617188 0 C 39.226562 0 0 39.226562 0 87.617188 C 0 136.007812 39.226562 175.238281 87.617188 175.238281 C 136.011719 175.238281 175.238281 136.007812 175.238281 87.617188 C 175.238281 39.226562 136.011719 0 87.617188 0 Z M 87.617188 0 "/>
</clipPath>
<clipPath id="clip-191">
<path clip-rule="nonzero" d="M 119 111 L 130 111 L 130 121 L 119 121 Z M 119 111 "/>
</clipPath>
<clipPath id="clip-192">
<path clip-rule="nonzero" d="M 87.617188 0 C 39.226562 0 0 39.226562 0 87.617188 C 0 136.007812 39.226562 175.238281 87.617188 175.238281 C 136.011719 175.238281 175.238281 136.007812 175.238281 87.617188 C 175.238281 39.226562 136.011719 0 87.617188 0 Z M 87.617188 0 "/>
</clipPath>
</defs>
<path fill-rule="evenodd" fill="rgb(0%, 0%, 0%)" fill-opacity="1" d="M 87.617188 96.199219 C 90.261719 96.199219 92.402344 98.339844 92.402344 100.984375 C 92.402344 103.625 90.261719 105.769531 87.617188 105.769531 C 84.976562 105.769531 82.835938 103.625 82.835938 100.984375 C 82.835938 98.339844 84.976562 96.199219 87.617188 96.199219 "/>
<path fill-rule="evenodd" fill="rgb(0%, 0%, 0%)" fill-opacity="1" d="M 87.617188 96.199219 C 90.261719 96.199219 92.402344 98.339844 92.402344 100.984375 C 92.402344 103.625 90.261719 105.769531 87.617188 105.769531 C 84.976562 105.769531 82.835938 103.625 82.835938 100.984375 C 82.835938 98.339844 84.976562 96.199219 87.617188 96.199219 "/>
<g clip-path="url(#clip-0)">
<path fill-rule="evenodd" fill="rgb(0%, 0%, 0%)" fill-opacity="1" d="M 87.617188 0 C 136.011719 0 175.238281 39.226562 175.238281 87.617188 C 175.238281 136.007812 136.011719 175.238281 87.617188 175.238281 C 39.226562 175.238281 0 136.007812 0 87.617188 C 0 39.226562 39.226562 0 87.617188 0 "/>
</g>
<g clip-path="url(#clip-1)">
<g clip-path="url(#clip-2)">
<path fill-rule="evenodd" fill="rgb(100%, 100%, 100%)" fill-opacity="1" d="M 65.351562 114.351562 C 67.902344 116.824219 70.457031 119.296875 73.007812 121.769531 C 78.371094 128.503906 83.683594 135.214844 84.285156 139.449219 C 84.90625 154.472656 85.523438 169.496094 86.144531 184.519531 L 96.726562 184.519531 C 96.976562 169.433594 97.222656 154.347656 97.46875 139.261719 C 98.140625 134.214844 101.675781 130.363281 105.34375 126.5625 C 110.078125 123.59375 109.113281 108.972656 108.78125 101.941406 C 95.78125 104.902344 78.347656 111.386719 65.351562 114.351562 "/>
</g>
</g>
<g clip-path="url(#clip-3)">
<g clip-path="url(#clip-4)">
<path fill-rule="evenodd" fill="rgb(100%, 100%, 100%)" fill-opacity="1" d="M 77.371094 103.53125 C 75.644531 102.273438 73.917969 101.019531 72.191406 99.765625 C 72.183594 83.980469 72.175781 68.195312 72.171875 52.414062 C 72.722656 30.664062 73.816406 21.949219 75.234375 20.976562 C 76.378906 22.417969 77.15625 32.746094 77.554688 52.414062 C 77.496094 69.453125 77.433594 86.492188 77.371094 103.53125 "/>
</g>
</g>
<g clip-path="url(#clip-5)">
<g clip-path="url(#clip-6)">
<path fill-rule="evenodd" fill="rgb(100%, 100%, 100%)" fill-opacity="1" d="M 86.65625 103.53125 C 84.929688 102.273438 83.203125 101.019531 81.472656 99.765625 C 81.46875 83.980469 81.460938 68.195312 81.457031 52.414062 C 82.007812 30.664062 83.101562 21.949219 84.519531 20.976562 C 85.660156 22.417969 86.441406 32.746094 86.839844 52.414062 C 86.78125 69.453125 86.71875 86.492188 86.65625 103.53125 "/>
</g>
</g>
<g clip-path="url(#clip-7)">
<g clip-path="url(#clip-8)">
<path fill-rule="evenodd" fill="rgb(100%, 100%, 100%)" fill-opacity="1" d="M 95.941406 103.53125 C 94.210938 102.273438 92.484375 101.019531 90.757812 99.765625 C 90.753906 83.980469 90.746094 68.195312 90.742188 52.414062 C 91.292969 30.664062 92.386719 21.949219 93.804688 20.976562 C 94.945312 22.417969 95.726562 32.746094 96.125 52.414062 C 96.0625 69.453125 96 86.492188 95.941406 103.53125 "/>
</g>
</g>
<g clip-path="url(#clip-9)">
<g clip-path="url(#clip-10)">
<path fill-rule="evenodd" fill="rgb(100%, 100%, 100%)" fill-opacity="1" d="M 105.222656 103.53125 C 103.496094 102.273438 101.769531 101.019531 100.042969 99.765625 C 100.039062 83.980469 100.03125 68.195312 100.023438 52.414062 C 100.578125 30.664062 101.671875 21.949219 103.089844 20.976562 C 104.230469 22.417969 105.011719 32.746094 105.410156 52.414062 C 105.347656 69.453125 105.285156 86.492188 105.222656 103.53125 "/>
</g>
</g>
<g clip-path="url(#clip-11)">
<g clip-path="url(#clip-12)">
<path fill-rule="evenodd" fill="rgb(100%, 100%, 100%)" fill-opacity="1" d="M 120.167969 52.488281 C 115.960938 52.019531 111.246094 51.21875 107.292969 49.886719 C 87.789062 43.308594 69.808594 35.941406 59.167969 39.957031 C 59.816406 36.828125 63.8125 33.054688 68.359375 33.363281 C 74.785156 33.367188 93.277344 39.214844 107.835938 44.183594 C 117.304688 47.414062 124.175781 49.699219 120.167969 52.488281 "/>
</g>
</g>
<g clip-path="url(#clip-13)">
<g clip-path="url(#clip-14)">
<path fill="none" stroke-width="1.417" stroke-linecap="round" stroke-linejoin="round" stroke="rgb(0%, 0%, 0%)" stroke-opacity="1" stroke-miterlimit="22.926" d="M -0.00003125 0.00131875 C -4.207062 0.470069 -8.921906 1.27085 -12.875031 2.602881 C -32.378937 9.181006 -50.359406 16.548194 -61.000031 12.532569 C -60.351594 15.661475 -56.3555 19.434912 -51.808625 19.126319 C -45.382844 19.122412 -26.890656 13.274756 -12.332062 8.306006 C -2.863312 5.075537 4.007781 2.790381 -0.00003125 0.00131875 Z M -0.00003125 0.00131875 " transform="matrix(1, 0, 0, -1, 120.168, 52.4896)"/>
</g>
</g>
<g clip-path="url(#clip-15)">
<g clip-path="url(#clip-16)">
<path fill-rule="evenodd" fill="rgb(100%, 100%, 100%)" fill-opacity="1" d="M 99.367188 41.347656 C 95.476562 40.128906 91.585938 38.90625 87.695312 37.683594 C 95.148438 37.316406 103.382812 37.449219 107.914062 35.21875 C 111.84375 35.40625 112.523438 39.769531 110.234375 40.511719 C 105.285156 41.515625 101.59375 41.832031 99.367188 41.347656 "/>
</g>
</g>
<g clip-path="url(#clip-17)">
<g clip-path="url(#clip-18)">
<path fill="none" stroke-width="1.417" stroke-linecap="round" stroke-linejoin="round" stroke="rgb(0%, 0%, 0%)" stroke-opacity="1" stroke-miterlimit="22.926" d="M -0.0013125 0.00174375 C -3.891937 1.220494 -7.782562 2.44315 -11.673187 3.665806 C -4.220062 4.032994 4.014313 3.900181 8.545563 6.13065 C 12.47525 5.94315 13.154938 1.579869 10.865875 0.837681 C 5.916656 -0.166225 2.22525 -0.482631 -0.0013125 0.00174375 Z M -0.0013125 0.00174375 " transform="matrix(1, 0, 0, -1, 99.3685, 41.3494)"/>
</g>
</g>
<g clip-path="url(#clip-19)">
<g clip-path="url(#clip-20)">
<path fill-rule="evenodd" fill="rgb(100%, 100%, 100%)" fill-opacity="1" d="M 99.929688 41.53125 C 102.085938 41.773438 104.914062 41.519531 108.253906 40.890625 C 112.347656 41.441406 114.023438 43.171875 113.292969 46.074219 C 108.839844 44.5625 104.382812 43.046875 99.929688 41.53125 "/>
</g>
</g>
<g clip-path="url(#clip-21)">
<g clip-path="url(#clip-22)">
<path fill="none" stroke-width="1.417" stroke-linecap="round" stroke-linejoin="round" stroke="rgb(0%, 0%, 0%)" stroke-opacity="1" stroke-miterlimit="22.926" d="M 0.0016875 0.00155 C 2.157938 -0.240638 4.986063 0.0132687 8.325906 0.642175 C 12.419656 0.0913937 14.095438 -1.639075 13.364969 -4.541419 C 8.911844 -3.0297 4.454813 -1.514075 0.0016875 0.00155 Z M 0.0016875 0.00155 " transform="matrix(1, 0, 0, -1, 99.928, 41.5328)"/>
</g>
</g>
<g clip-path="url(#clip-23)">
<g clip-path="url(#clip-24)">
<path fill-rule="evenodd" fill="rgb(100%, 100%, 100%)" fill-opacity="1" d="M 57.726562 54.902344 C 57.6875 52.980469 57.984375 51.222656 58.933594 49.796875 C 79.15625 51.648438 99.757812 53.65625 103.140625 48.46875 C 105.648438 49.269531 107.15625 49.804688 109.660156 50.601562 C 106.335938 58.742188 85.980469 56.902344 57.726562 54.902344 "/>
</g>
</g>
<g clip-path="url(#clip-25)">
<g clip-path="url(#clip-26)">
<path fill="none" stroke-width="1.417" stroke-linecap="round" stroke-linejoin="round" stroke="rgb(0%, 0%, 0%)" stroke-opacity="1" stroke-miterlimit="22.926" d="M -0.0018375 0.00125625 C -0.0409 1.923131 0.255975 3.680944 1.205194 5.106725 C 21.42785 3.255163 42.029412 1.24735 45.412225 6.43485 C 47.920037 5.634069 49.42785 5.098913 51.931756 4.302038 C 48.607537 -3.838587 28.252069 -1.998744 -0.0018375 0.00125625 Z M -0.0018375 0.00125625 " transform="matrix(1, 0, 0, -1, 57.7284, 54.9036)"/>
</g>
</g>
<g clip-path="url(#clip-27)">
<g clip-path="url(#clip-28)">
<path fill-rule="evenodd" fill="rgb(100%, 100%, 100%)" fill-opacity="1" d="M 68.4375 55.660156 C 65.464844 55.449219 63.988281 55.347656 61.015625 55.136719 C 57.742188 59.632812 49.359375 61.058594 41.0625 62.539062 C 41.0625 64.332031 41.554688 66.042969 42.734375 67.644531 C 55.097656 65.9375 64.457031 62.242188 68.4375 55.660156 "/>
</g>
</g>
<g clip-path="url(#clip-29)">
<g clip-path="url(#clip-30)">
<path fill="none" stroke-width="1.417" stroke-linecap="round" stroke-linejoin="round" stroke="rgb(0%, 0%, 0%)" stroke-opacity="1" stroke-miterlimit="22.926" d="M -0.001 -0.00175625 C -2.973656 0.209181 -4.450219 0.310744 -7.422875 0.521681 C -10.696313 -3.974412 -19.079125 -5.400194 -27.376 -6.880662 C -27.376 -8.673631 -26.883813 -10.384569 -25.704125 -11.986131 C -13.340844 -10.2791 -3.981469 -6.583787 -0.001 -0.00175625 Z M -0.001 -0.00175625 " transform="matrix(1, 0, 0, -1, 68.4385, 55.6584)"/>
</g>
</g>
<g clip-path="url(#clip-31)">
<g clip-path="url(#clip-32)">
<path fill-rule="evenodd" fill="rgb(100%, 100%, 100%)" fill-opacity="1" d="M 62.164062 61.683594 C 64.074219 60.445312 65.910156 59.117188 67.316406 57.265625 C 86.140625 60.605469 105.125 61.882812 124.691406 55.554688 C 126.054688 53.480469 131.964844 55.769531 129.613281 59.640625 C 109.792969 65.410156 87.679688 66.804688 62.164062 61.683594 "/>
</g>
</g>
<g clip-path="url(#clip-33)">
<g clip-path="url(#clip-34)">
<path fill="none" stroke-width="1.417" stroke-linecap="round" stroke-linejoin="round" stroke="rgb(0%, 0%, 0%)" stroke-opacity="1" stroke-miterlimit="22.926" d="M -0.0011375 -0.00039375 C 1.909019 1.237888 3.744956 2.566013 5.151206 4.417575 C 23.975425 1.077731 42.9598 -0.199612 62.526206 6.128513 C 63.889487 8.202731 69.799644 5.913669 67.448081 2.042575 C 47.627769 -3.726956 25.514487 -5.121487 -0.0011375 -0.00039375 Z M -0.0011375 -0.00039375 " transform="matrix(1, 0, 0, -1, 62.1652, 61.6832)"/>
</g>
</g>
<g clip-path="url(#clip-35)">
<g clip-path="url(#clip-36)">
<path fill-rule="evenodd" fill="rgb(100%, 100%, 100%)" fill-opacity="1" d="M 67.316406 57.265625 C 94.421875 62.160156 110.734375 59.664062 124.691406 55.554688 C 118.105469 55.585938 110.625 56.730469 102.585938 55.433594 C 91.765625 57.855469 80.039062 56.496094 68.4375 55.660156 C 68.0625 56.195312 67.691406 56.730469 67.316406 57.265625 "/>
</g>
</g>
<g clip-path="url(#clip-37)">
<g clip-path="url(#clip-38)">
<path fill="none" stroke-width="1.417" stroke-linecap="round" stroke-linejoin="round" stroke="rgb(0%, 0%, 0%)" stroke-opacity="1" stroke-miterlimit="22.926" d="M 0.00040625 -0.000225 C 27.105875 -4.894756 43.418375 -2.398663 57.375406 1.710712 C 50.789469 1.679462 43.309 0.534931 35.269937 1.831806 C 24.449625 -0.590069 12.723062 0.769306 1.1215 1.605244 C 0.7465 1.070087 0.375406 0.534931 0.00040625 -0.000225 Z M 0.00040625 -0.000225 " transform="matrix(1, 0, 0, -1, 67.316, 57.2654)"/>
</g>
</g>
<g clip-path="url(#clip-39)">
<g clip-path="url(#clip-40)">
<path fill-rule="evenodd" fill="rgb(100%, 100%, 100%)" fill-opacity="1" d="M 109.660156 50.601562 C 113.117188 51.492188 116.609375 52.171875 120.167969 52.488281 C 122.101562 53.054688 123.621094 54.0625 124.691406 55.554688 C 115.097656 56.167969 107.082031 56.320312 102.816406 55.375 C 106.320312 54.460938 108.816406 52.949219 109.660156 50.601562 "/>
</g>
</g>
<g clip-path="url(#clip-41)">
<g clip-path="url(#clip-42)">
<path fill="none" stroke-width="1.417" stroke-linecap="round" stroke-linejoin="round" stroke="rgb(0%, 0%, 0%)" stroke-opacity="1" stroke-miterlimit="22.926" d="M -0.00114375 -0.0001625 C 3.455888 -0.890787 6.948075 -1.570475 10.506669 -1.886881 C 12.440263 -2.453287 13.959794 -3.4611 15.030106 -4.953287 C 5.436356 -5.566569 -2.579269 -5.718912 -6.844894 -4.7736 C -3.340987 -3.859537 -0.844894 -2.347819 -0.00114375 -0.0001625 Z M -0.00114375 -0.0001625 " transform="matrix(1, 0, 0, -1, 109.6613, 50.6014)"/>
</g>
</g>
<g clip-path="url(#clip-43)">
<g clip-path="url(#clip-44)">
<path fill-rule="evenodd" fill="rgb(100%, 100%, 100%)" fill-opacity="1" d="M 56.25 58.71875 C 58.449219 57.898438 60.183594 56.226562 61.015625 55.136719 C 59.917969 55.058594 58.824219 54.980469 57.726562 54.902344 C 57.664062 54.558594 57.730469 54.082031 57.753906 53.691406 C 54.945312 53.046875 51.855469 49.890625 54.273438 47.160156 C 60.957031 41.222656 73.660156 41.398438 86.308594 42.796875 C 76.296875 39.871094 66.4375 37.253906 59.167969 39.957031 C 55.074219 41.421875 51.070312 43.050781 49.449219 45.632812 C 47.050781 51.355469 49.859375 56.089844 56.25 58.71875 "/>
</g>
</g>
<g clip-path="url(#clip-45)">
<g clip-path="url(#clip-46)">
<path fill="none" stroke-width="1.417" stroke-linecap="round" stroke-linejoin="round" stroke="rgb(0%, 0%, 0%)" stroke-opacity="1" stroke-miterlimit="22.926" d="M 0.0016 -0.00145 C 2.200819 0.818863 3.935194 2.490738 4.767225 3.580581 C 3.669569 3.658706 2.575819 3.736831 1.478162 3.814956 C 1.415662 4.158706 1.482069 4.635269 1.505506 5.025894 C -1.303088 5.670425 -4.392931 8.826675 -1.974963 11.557144 C 4.708631 17.494644 17.411756 17.318863 30.060194 15.920425 C 20.048475 18.846206 10.1891 21.463394 2.919569 18.760269 C -1.174181 17.295425 -5.178088 15.666519 -6.799181 13.084488 C -9.197619 7.361831 -6.389025 2.627456 0.0016 -0.00145 Z M 0.0016 -0.00145 " transform="matrix(1, 0, 0, -1, 56.2484, 58.7173)"/>
</g>
</g>
<g clip-path="url(#clip-47)">
<g clip-path="url(#clip-48)">
<path fill-rule="evenodd" fill="rgb(100%, 100%, 100%)" fill-opacity="1" d="M 54.273438 47.15625 C 52.199219 49.378906 53.832031 52.171875 57.753906 53.691406 C 52.332031 46.28125 69.808594 44.664062 86.308594 42.796875 C 71.789062 41.375 59.699219 41.769531 54.273438 47.15625 "/>
</g>
</g>
<g clip-path="url(#clip-49)">
<g clip-path="url(#clip-50)">
<path fill="none" stroke-width="1.417" stroke-linecap="round" stroke-linejoin="round" stroke="rgb(0%, 0%, 0%)" stroke-opacity="1" stroke-miterlimit="22.926" d="M -0.0009625 0.00195 C -2.075181 -2.220706 -0.442369 -5.013675 3.479506 -6.533206 C -1.942369 0.87695 15.534194 2.494137 32.034194 4.361325 C 17.514663 5.7832 5.424819 5.388669 -0.0009625 0.00195 Z M -0.0009625 0.00195 " transform="matrix(1, 0, 0, -1, 54.2744, 47.1582)"/>
</g>
</g>
<g clip-path="url(#clip-51)">
<g clip-path="url(#clip-52)">
<path fill-rule="evenodd" fill="rgb(100%, 100%, 100%)" fill-opacity="1" d="M 67.105469 45.394531 C 65.046875 45.832031 63.269531 46.324219 61.617188 46.847656 C 62 48.613281 63.320312 49.933594 66.300781 50.46875 C 84.984375 52.152344 101.140625 52.910156 103.140625 48.46875 C 100.691406 47.625 98.242188 46.777344 95.792969 45.933594 C 97.839844 49.488281 65.691406 49.199219 67.105469 45.394531 "/>
</g>
</g>
<g clip-path="url(#clip-53)">
<g clip-path="url(#clip-54)">
<path fill="none" stroke-width="1.417" stroke-linecap="round" stroke-linejoin="round" stroke="rgb(0%, 0%, 0%)" stroke-opacity="1" stroke-miterlimit="22.926" d="M -0.00073125 0.00136875 C -2.059325 -0.436131 -3.836669 -0.928319 -5.489013 -1.451756 C -5.1062 -3.217381 -3.785888 -4.537694 -0.805419 -5.07285 C 17.878175 -6.756444 34.034425 -7.514256 36.034425 -3.07285 C 33.585206 -2.2291 31.135987 -1.381444 28.686769 -0.537694 C 30.733644 -4.092381 -1.414794 -3.803319 -0.00073125 0.00136875 Z M -0.00073125 0.00136875 " transform="matrix(1, 0, 0, -1, 67.1062, 45.3959)"/>
</g>
</g>
<g clip-path="url(#clip-55)">
<g clip-path="url(#clip-56)">
<path fill-rule="evenodd" fill="rgb(100%, 100%, 100%)" fill-opacity="1" d="M 78.328125 48.316406 C 76.035156 48.214844 74.050781 48 72.191406 47.738281 C 75.304688 46.542969 78.441406 45.375 80.738281 43.425781 C 82.59375 43.214844 84.453125 43.007812 86.308594 42.796875 C 84.851562 45.125 82.074219 46.917969 78.328125 48.316406 "/>
</g>
</g>
<g clip-path="url(#clip-57)">
<g clip-path="url(#clip-58)">
<path fill="none" stroke-width="1.417" stroke-linecap="round" stroke-linejoin="round" stroke="rgb(0%, 0%, 0%)" stroke-opacity="1" stroke-miterlimit="22.926" d="M 0.000425 0.00169375 C -2.292544 0.103256 -4.276919 0.3181 -6.136294 0.579819 C -3.023012 1.775131 0.113706 2.9431 2.410581 4.892319 C 4.26605 5.103256 6.125425 5.310288 7.980894 5.521225 C 6.523863 3.1931 3.746519 1.400131 0.000425 0.00169375 Z M 0.000425 0.00169375 " transform="matrix(1, 0, 0, -1, 78.3277, 48.3181)"/>
</g>
</g>
<g clip-path="url(#clip-59)">
<g clip-path="url(#clip-60)">
<path fill-rule="evenodd" fill="rgb(100%, 100%, 100%)" fill-opacity="1" d="M 78.589844 48.21875 C 81.128906 48.511719 83.800781 48.542969 86.589844 48.359375 C 88.570312 47.640625 90.210938 46.398438 91.386719 44.4375 C 89.695312 43.890625 88 43.34375 86.308594 42.796875 C 84.824219 45.179688 82.117188 46.917969 78.589844 48.21875 "/>
</g>
</g>
<g clip-path="url(#clip-61)">
<g clip-path="url(#clip-62)">
<path fill="none" stroke-width="1.417" stroke-linecap="round" stroke-linejoin="round" stroke="rgb(0%, 0%, 0%)" stroke-opacity="1" stroke-miterlimit="22.926" d="M 0.00134375 0.00075 C 2.540406 -0.292219 5.212281 -0.323469 8.001344 -0.139875 C 9.981813 0.578875 11.622438 1.821063 12.798219 3.782 C 11.106813 4.328875 9.4115 4.87575 7.720094 5.422625 C 6.235719 3.039813 3.528688 1.301531 0.00134375 0.00075 Z M 0.00134375 0.00075 " transform="matrix(1, 0, 0, -1, 78.5885, 48.2195)"/>
</g>
</g>
<g clip-path="url(#clip-63)">
<g clip-path="url(#clip-64)">
<path fill-rule="evenodd" fill="rgb(100%, 100%, 100%)" fill-opacity="1" d="M 129.613281 59.640625 C 109.03125 71.011719 86.707031 72.59375 62.164062 61.683594 C 87.996094 66.820312 110.050781 65.402344 129.613281 59.640625 "/>
</g>
</g>
<g clip-path="url(#clip-65)">
<g clip-path="url(#clip-66)">
<path fill="none" stroke-width="1.417" stroke-linecap="round" stroke-linejoin="round" stroke="rgb(0%, 0%, 0%)" stroke-opacity="1" stroke-miterlimit="22.926" d="M 0.00108125 -0.001225 C -20.58095 -11.372319 -42.905169 -12.95435 -67.448138 -2.044194 C -41.616106 -7.180912 -19.561419 -5.762944 0.00108125 -0.001225 Z M 0.00108125 -0.001225 " transform="matrix(1, 0, 0, -1, 129.6122, 59.6394)"/>
</g>
</g>
<g clip-path="url(#clip-67)">
<g clip-path="url(#clip-68)">
<path fill-rule="evenodd" fill="rgb(100%, 100%, 100%)" fill-opacity="1" d="M 62.164062 61.683594 C 57.300781 64.542969 52.097656 66.035156 46.765625 66.996094 C 58.363281 68.421875 66.617188 67.8125 71.902344 65.398438 C 68.523438 64.296875 65.242188 63.097656 62.164062 61.683594 "/>
</g>
</g>
<g clip-path="url(#clip-69)">
<g clip-path="url(#clip-70)">
<path fill="none" stroke-width="1.417" stroke-linecap="round" stroke-linejoin="round" stroke="rgb(0%, 0%, 0%)" stroke-opacity="1" stroke-miterlimit="22.926" d="M -0.0011375 -0.00039375 C -4.864419 -2.859769 -10.067544 -4.351956 -15.399575 -5.312894 C -3.801919 -6.738675 4.451987 -6.1293 9.737144 -3.715237 C 6.358237 -2.613675 3.076987 -1.414456 -0.0011375 -0.00039375 Z M -0.0011375 -0.00039375 " transform="matrix(1, 0, 0, -1, 62.1652, 61.6832)"/>
</g>
</g>
<g clip-path="url(#clip-71)">
<g clip-path="url(#clip-72)">
<path fill-rule="evenodd" fill="rgb(100%, 100%, 100%)" fill-opacity="1" d="M 90.554688 102.058594 C 71.222656 97.167969 49.066406 89.871094 40.601562 94.257812 C 39.425781 88.90625 42.089844 86.429688 47.84375 86.273438 C 62.453125 89.742188 77.0625 93.207031 91.667969 96.671875 C 91.296875 98.46875 90.925781 100.261719 90.554688 102.058594 "/>
</g>
</g>
<g clip-path="url(#clip-73)">
<g clip-path="url(#clip-74)">
<path fill="none" stroke-width="1.417" stroke-linecap="round" stroke-linejoin="round" stroke="rgb(0%, 0%, 0%)" stroke-opacity="1" stroke-miterlimit="22.926" d="M 0.0007875 -0.00069375 C -19.331244 4.889931 -41.487494 12.186806 -49.952337 7.800088 C -51.128119 13.15165 -48.464056 15.628213 -42.71015 15.784463 C -28.100775 12.315713 -13.4914 8.850869 1.114069 5.386025 C 0.742975 3.58915 0.371881 1.796181 0.0007875 -0.00069375 Z M 0.0007875 -0.00069375 " transform="matrix(1, 0, 0, -1, 90.5539, 102.0579)"/>
</g>
</g>
<g clip-path="url(#clip-75)">
<g clip-path="url(#clip-76)">
<path fill-rule="evenodd" fill="rgb(100%, 100%, 100%)" fill-opacity="1" d="M 91.667969 96.671875 C 88.351562 95.886719 85.035156 95.101562 81.71875 94.3125 C 98.054688 91.210938 111.078125 86.867188 121.472656 81.539062 C 128.097656 78.769531 134.40625 77.902344 140.039062 81.074219 C 142.671875 82.5625 142.609375 87.574219 140.132812 89.152344 C 131.5 78.195312 108.101562 97.136719 91.667969 96.671875 "/>
</g>
</g>
<g clip-path="url(#clip-77)">
<g clip-path="url(#clip-78)">
<path fill="none" stroke-width="1.417" stroke-linecap="round" stroke-linejoin="round" stroke="rgb(0%, 0%, 0%)" stroke-opacity="1" stroke-miterlimit="22.926" d="M -0.00023125 0.001025 C -3.316637 0.786181 -6.633044 1.571337 -9.94945 2.3604 C 6.386488 5.461962 19.409925 9.805712 29.804456 15.133837 C 36.429456 17.903369 42.73805 18.770556 48.370863 15.598681 C 51.003675 14.1104 50.941175 9.098681 48.464613 7.520556 C 39.8318 18.477587 16.433363 -0.463819 -0.00023125 0.001025 Z M -0.00023125 0.001025 " transform="matrix(1, 0, 0, -1, 91.6682, 96.6729)"/>
</g>
</g>
<g clip-path="url(#clip-79)">
<g clip-path="url(#clip-80)">
<path fill-rule="evenodd" fill="rgb(100%, 100%, 100%)" fill-opacity="1" d="M 91.667969 96.671875 C 93.738281 96.941406 97.128906 96.429688 101.859375 95.113281 C 115.257812 91.789062 127.449219 91.328125 136.882812 97.414062 C 137.003906 100.246094 135.558594 101.734375 133.078125 102.335938 C 123.46875 91.167969 101.449219 103.277344 90.792969 100.898438 C 91.085938 99.488281 91.375 98.082031 91.667969 96.671875 "/>
</g>
</g>
<g clip-path="url(#clip-81)">
<g clip-path="url(#clip-82)">
<path fill="none" stroke-width="1.417" stroke-linecap="round" stroke-linejoin="round" stroke="rgb(0%, 0%, 0%)" stroke-opacity="1" stroke-miterlimit="22.926" d="M -0.00023125 0.001025 C 2.070081 -0.268506 5.460706 0.243212 10.191175 1.559619 C 23.589613 4.883837 35.781019 5.344775 45.214613 -0.741163 C 45.335706 -3.573194 43.890394 -5.061475 41.409925 -5.663038 C 31.80055 5.504931 9.781019 -6.604444 -0.875231 -4.225538 C -0.582262 -2.815381 -0.2932 -1.409131 -0.00023125 0.001025 Z M -0.00023125 0.001025 " transform="matrix(1, 0, 0, -1, 91.6682, 96.6729)"/>
</g>
</g>
<g clip-path="url(#clip-83)">
<g clip-path="url(#clip-84)">
<path fill-rule="evenodd" fill="rgb(100%, 100%, 100%)" fill-opacity="1" d="M 112.085938 91.554688 C 124.152344 86.332031 135.269531 82.652344 140.132812 89.152344 C 140.492188 91.933594 139.597656 93.464844 137.730469 94.015625 C 133.773438 89.3125 122.636719 90.679688 112.085938 91.554688 "/>
</g>
</g>
<g clip-path="url(#clip-85)">
<g clip-path="url(#clip-86)">
<path fill="none" stroke-width="1.417" stroke-linecap="round" stroke-linejoin="round" stroke="rgb(0%, 0%, 0%)" stroke-opacity="1" stroke-miterlimit="22.926" d="M -0.0004625 0.0005125 C 12.065944 5.223169 23.183131 8.902856 28.046413 2.402856 C 28.405788 -0.378394 27.511256 -1.909644 25.644069 -2.460425 C 21.687038 2.2427 10.550319 0.875512 -0.0004625 0.0005125 Z M -0.0004625 0.0005125 " transform="matrix(1, 0, 0, -1, 112.0864, 91.5552)"/>
</g>
</g>
<g clip-path="url(#clip-87)">
<g clip-path="url(#clip-88)">
<path fill-rule="evenodd" fill="rgb(100%, 100%, 100%)" fill-opacity="1" d="M 136.882812 97.414062 C 137.863281 97.382812 138.109375 95.78125 137.730469 94.015625 C 134.335938 89.949219 123.929688 90.023438 112.085938 91.554688 C 109.210938 92.582031 106.332031 93.609375 103.453125 94.636719 C 115.746094 91.929688 127.324219 91.484375 136.882812 97.414062 "/>
</g>
</g>
<g clip-path="url(#clip-89)">
<g clip-path="url(#clip-90)">
<path fill="none" stroke-width="1.417" stroke-linecap="round" stroke-linejoin="round" stroke="rgb(0%, 0%, 0%)" stroke-opacity="1" stroke-miterlimit="22.926" d="M -0.0001875 0.0018375 C 0.980281 0.0330875 1.226375 1.63465 0.847469 3.400275 C -2.547063 7.466681 -12.953313 7.392463 -24.797063 5.861213 C -27.672063 4.833869 -30.550969 3.806525 -33.429875 2.779181 C -21.136906 5.486213 -9.558781 5.931525 -0.0001875 0.0018375 Z M -0.0001875 0.0018375 " transform="matrix(1, 0, 0, -1, 136.883, 97.4159)"/>
</g>
</g>
<g clip-path="url(#clip-91)">
<g clip-path="url(#clip-92)">
<path fill-rule="evenodd" fill="rgb(100%, 100%, 100%)" fill-opacity="1" d="M 56.925781 88.429688 C 71.375 90.75 86.4375 91.789062 103.367188 88.910156 C 108.207031 87.28125 113.027344 85.609375 117.597656 83.421875 C 94.730469 85.441406 73.460938 86.179688 59.273438 81.25 C 57.089844 82.878906 56.386719 85.3125 56.925781 88.429688 "/>
</g>
</g>
<g clip-path="url(#clip-93)">
<g clip-path="url(#clip-94)">
<path fill="none" stroke-width="1.417" stroke-linecap="round" stroke-linejoin="round" stroke="rgb(0%, 0%, 0%)" stroke-opacity="1" stroke-miterlimit="22.926" d="M 0.00098125 -0.0007875 C 14.4502 -2.3211 29.5127 -3.360163 46.442388 -0.481256 C 51.282231 1.14765 56.102544 2.819525 60.672856 5.007025 C 37.805669 2.987494 16.536138 2.249212 2.348638 7.1789 C 0.165044 5.549994 -0.538081 3.1164 0.00098125 -0.0007875 Z M 0.00098125 -0.0007875 " transform="matrix(1, 0, 0, -1, 56.9248, 88.4289)"/>
</g>
</g>
<g clip-path="url(#clip-95)">
<g clip-path="url(#clip-96)">
<path fill-rule="evenodd" fill="rgb(100%, 100%, 100%)" fill-opacity="1" d="M 117.167969 83.621094 C 101.367188 84.613281 90.867188 85.019531 84.761719 84.933594 C 100.785156 82.242188 115.667969 74.667969 126.738281 79.761719 C 123.476562 80.664062 120.308594 82.0625 117.167969 83.621094 "/>
</g>
</g>
<g clip-path="url(#clip-97)">
<g clip-path="url(#clip-98)">
<path fill="none" stroke-width="1.417" stroke-linecap="round" stroke-linejoin="round" stroke="rgb(0%, 0%, 0%)" stroke-opacity="1" stroke-miterlimit="22.926" d="M 0.00186875 -0.00029375 C -15.798913 -0.992481 -26.298913 -1.398731 -32.404381 -1.312794 C -16.380944 1.378613 -1.498131 8.952831 9.572181 3.859081 C 6.310462 2.956738 3.142494 1.5583 0.00186875 -0.00029375 Z M 0.00186875 -0.00029375 " transform="matrix(1, 0, 0, -1, 117.1661, 83.6208)"/>
</g>
</g>
<g clip-path="url(#clip-99)">
<g clip-path="url(#clip-100)">
<path fill-rule="evenodd" fill="rgb(100%, 100%, 100%)" fill-opacity="1" d="M 84.761719 84.933594 C 77.941406 84.703125 71.414062 84.160156 65.5 82.96875 C 93.167969 80.488281 118.8125 66.539062 136.753906 74.054688 C 138.691406 75.292969 139.582031 77.460938 139.292969 80.679688 C 135.566406 78.917969 131.378906 78.621094 126.738281 79.761719 C 117.6875 74.933594 101.328125 81.480469 84.761719 84.933594 "/>
</g>
</g>
<g clip-path="url(#clip-101)">
<g clip-path="url(#clip-102)">
<path fill="none" stroke-width="1.417" stroke-linecap="round" stroke-linejoin="round" stroke="rgb(0%, 0%, 0%)" stroke-opacity="1" stroke-miterlimit="22.926" d="M -0.00098125 -0.00119375 C -6.821294 0.229275 -13.348637 0.772244 -19.2627 1.96365 C 8.405269 4.444119 34.0498 18.393338 51.991206 10.877713 C 53.928706 9.639431 54.819331 7.471463 54.530269 4.252713 C 50.803706 6.014431 46.616206 6.311306 41.975581 5.170681 C 32.9248 9.998806 16.565425 3.451931 -0.00098125 -0.00119375 Z M -0.00098125 -0.00119375 " transform="matrix(1, 0, 0, -1, 84.7627, 84.9324)"/>
</g>
</g>
<g clip-path="url(#clip-103)">
<g clip-path="url(#clip-104)">
<path fill-rule="evenodd" fill="rgb(100%, 100%, 100%)" fill-opacity="1" d="M 65.5 82.96875 C 63.425781 82.394531 61.351562 81.824219 59.273438 81.25 C 62.558594 71.238281 88.332031 73.40625 110.339844 73.535156 C 95.363281 77.203125 80.375 81.082031 65.5 82.96875 "/>
</g>
</g>
<g clip-path="url(#clip-105)">
<g clip-path="url(#clip-106)">
<path fill="none" stroke-width="1.417" stroke-linecap="round" stroke-linejoin="round" stroke="rgb(0%, 0%, 0%)" stroke-opacity="1" stroke-miterlimit="22.926" d="M -0.0013 0.00065 C -2.075519 0.574869 -4.149738 1.145181 -6.227863 1.7194 C -2.942706 11.731119 22.830731 9.56315 44.838544 9.434244 C 29.861981 5.766275 14.8737 1.887369 -0.0013 0.00065 Z M -0.0013 0.00065 " transform="matrix(1, 0, 0, -1, 65.5013, 82.9694)"/>
</g>
</g>
<g clip-path="url(#clip-107)">
<g clip-path="url(#clip-108)">
<path fill-rule="evenodd" fill="rgb(100%, 100%, 100%)" fill-opacity="1" d="M 109.144531 67.496094 C 112.679688 66.757812 116.425781 65.6875 120.617188 63.933594 C 124.230469 64.1875 127.847656 64.597656 131.460938 66.347656 C 131.632812 68.332031 131.199219 69.996094 129.511719 70.992188 C 123.058594 68.644531 116.097656 68.082031 109.144531 67.496094 "/>
</g>
</g>
<g clip-path="url(#clip-109)">
<g clip-path="url(#clip-110)">
<path fill="none" stroke-width="1.417" stroke-linecap="round" stroke-linejoin="round" stroke="rgb(0%, 0%, 0%)" stroke-opacity="1" stroke-miterlimit="22.926" d="M -0.00086875 -0.00079375 C 3.534288 0.737488 7.280381 1.8078 11.471788 3.561706 C 15.085069 3.3078 18.702256 2.897644 22.315538 1.147644 C 22.487413 -0.836731 22.053819 -2.500794 20.366319 -3.496887 C 13.913194 -1.149231 6.952256 -0.586731 -0.00086875 -0.00079375 Z M -0.00086875 -0.00079375 " transform="matrix(1, 0, 0, -1, 109.1454, 67.4953)"/>
</g>
</g>
<g clip-path="url(#clip-111)">
<g clip-path="url(#clip-112)">
<path fill-rule="evenodd" fill="rgb(100%, 100%, 100%)" fill-opacity="1" d="M 120.617188 63.933594 C 123.550781 62.832031 126.554688 61.371094 129.613281 59.640625 C 130.929688 60.828125 131.070312 63.011719 130.40625 65.875 C 127.199219 64.722656 123.941406 64 120.617188 63.933594 "/>
</g>
</g>
<g clip-path="url(#clip-113)">
<g clip-path="url(#clip-114)">
<path fill="none" stroke-width="1.417" stroke-linecap="round" stroke-linejoin="round" stroke="rgb(0%, 0%, 0%)" stroke-opacity="1" stroke-miterlimit="22.926" d="M 0.0004875 -0.00079375 C 2.934081 1.100769 5.937988 2.561706 8.996581 4.292175 C 10.312988 3.104675 10.453613 0.921081 9.78955 -1.9422 C 6.582519 -0.789856 3.324706 -0.0672 0.0004875 -0.00079375 Z M 0.0004875 -0.00079375 " transform="matrix(1, 0, 0, -1, 120.6167, 63.9328)"/>
</g>
</g>
<g clip-path="url(#clip-115)">
<g clip-path="url(#clip-116)">
<path fill-rule="evenodd" fill="rgb(100%, 100%, 100%)" fill-opacity="1" d="M 110.339844 73.535156 C 87.867188 72.8125 66.535156 72.546875 60.878906 78.628906 C 60.871094 75.542969 61.964844 72.890625 65.238281 71.105469 C 71.511719 68.398438 78.207031 67.671875 85.226562 68.429688 C 93.261719 69.566406 101.234375 69.230469 109.144531 67.496094 C 116.921875 67.929688 124 68.882812 129.511719 70.988281 C 129.464844 71.371094 129.417969 71.753906 129.367188 72.136719 C 123.019531 71.40625 116.675781 72.210938 110.339844 73.535156 "/>
</g>
</g>
<g clip-path="url(#clip-117)">
<g clip-path="url(#clip-118)">
<path fill="none" stroke-width="1.417" stroke-linecap="round" stroke-linejoin="round" stroke="rgb(0%, 0%, 0%)" stroke-opacity="1" stroke-miterlimit="22.926" d="M 0.00104375 0.00054375 C -22.471612 0.7232 -43.803644 0.988825 -49.459894 -5.093206 C -49.467706 -2.007269 -48.373956 0.645075 -45.100519 2.430231 C -38.827081 5.137263 -32.131769 5.863825 -25.112237 5.106013 C -17.077081 3.969294 -9.104425 4.305231 -1.194269 6.039606 C 6.583075 5.606013 13.6612 4.652888 19.172919 2.547419 C 19.126044 2.164606 19.079169 1.781794 19.028388 1.398981 C 12.680731 2.12945 6.336981 1.324763 0.00104375 0.00054375 Z M 0.00104375 0.00054375 " transform="matrix(1, 0, 0, -1, 110.3388, 73.5357)"/>
</g>
</g>
<g clip-path="url(#clip-119)">
<g clip-path="url(#clip-120)">
<path fill-rule="evenodd" fill="rgb(100%, 100%, 100%)" fill-opacity="1" d="M 51.148438 55.464844 C 50.082031 54.40625 49.226562 52.984375 48.722656 50.96875 C 44.363281 53.339844 41.957031 57.320312 41.0625 62.539062 C 43.074219 62.164062 45.089844 61.789062 47.105469 61.414062 C 47.519531 58.566406 49 56.703125 51.148438 55.464844 "/>
</g>
</g>
<g clip-path="url(#clip-121)">
<g clip-path="url(#clip-122)">
<path fill="none" stroke-width="1.417" stroke-linecap="round" stroke-linejoin="round" stroke="rgb(0%, 0%, 0%)" stroke-opacity="1" stroke-miterlimit="22.926" d="M 0.0007375 -0.00054375 C -1.065669 1.05805 -1.921138 2.479925 -2.425044 4.49555 C -6.784419 2.124456 -9.190669 -1.856012 -10.0852 -7.074762 C -8.073481 -6.699762 -6.057856 -6.324762 -4.042231 -5.949762 C -3.628169 -3.102106 -2.1477 -1.238825 0.0007375 -0.00054375 Z M 0.0007375 -0.00054375 " transform="matrix(1, 0, 0, -1, 51.1477, 55.4643)"/>
</g>
</g>
<g clip-path="url(#clip-123)">
<g clip-path="url(#clip-124)">
<path fill-rule="evenodd" fill="rgb(100%, 100%, 100%)" fill-opacity="1" d="M 42.734375 67.648438 C 41.621094 66.082031 41.042969 64.386719 41.0625 62.539062 C 38.914062 76.300781 44.378906 83.007812 52.390625 87.355469 C 53.902344 87.710938 55.414062 88.070312 56.925781 88.429688 C 56.871094 87.679688 56.8125 86.929688 56.757812 86.183594 C 49.316406 83.351562 45.960938 80.8125 46.375 67.070312 C 45.03125 67.285156 44.078125 67.429688 42.734375 67.648438 "/>
</g>
</g>
<g clip-path="url(#clip-125)">
<g clip-path="url(#clip-126)">
<path fill="none" stroke-width="1.417" stroke-linecap="round" stroke-linejoin="round" stroke="rgb(0%, 0%, 0%)" stroke-opacity="1" stroke-miterlimit="22.926" d="M 0.001575 -0.0017375 C -1.111706 1.564669 -1.689831 3.259981 -1.6703 5.107638 C -3.818738 -8.654081 1.646106 -15.361112 9.657825 -19.708769 C 11.169544 -20.064237 12.681262 -20.423612 14.192981 -20.782987 C 14.138294 -20.032987 14.0797 -19.282987 14.025012 -18.536894 C 6.583606 -15.704862 3.228137 -13.1658 3.6422 0.576388 C 2.29845 0.361544 1.345325 0.217013 0.001575 -0.0017375 Z M 0.001575 -0.0017375 " transform="matrix(1, 0, 0, -1, 42.7328, 67.6467)"/>
</g>
</g>
<g clip-path="url(#clip-127)">
<g clip-path="url(#clip-128)">
<path fill-rule="evenodd" fill="rgb(100%, 100%, 100%)" fill-opacity="1" d="M 51.148438 55.464844 C 51.90625 56.066406 52.664062 56.667969 53.421875 57.269531 C 52.332031 58.0625 51.667969 59.042969 51.695312 60.332031 C 50.164062 60.691406 48.632812 61.054688 47.105469 61.414062 C 47.417969 58.890625 48.703125 56.875 51.148438 55.464844 "/>
</g>
</g>
<g clip-path="url(#clip-129)">
<g clip-path="url(#clip-130)">
<path fill="none" stroke-width="1.417" stroke-linecap="round" stroke-linejoin="round" stroke="rgb(0%, 0%, 0%)" stroke-opacity="1" stroke-miterlimit="22.926" d="M 0.0007375 -0.00054375 C 0.75855 -0.602106 1.516362 -1.203669 2.274175 -1.805231 C 1.184331 -2.5982 0.520269 -3.578669 0.547612 -4.867731 C -0.983638 -5.227106 -2.514888 -5.590387 -4.042231 -5.949762 C -3.729731 -3.426325 -2.444575 -1.4107 0.0007375 -0.00054375 Z M 0.0007375 -0.00054375 " transform="matrix(1, 0, 0, -1, 51.1477, 55.4643)"/>
</g>
</g>
<g clip-path="url(#clip-131)">
<g clip-path="url(#clip-132)">
<path fill-rule="evenodd" fill="rgb(100%, 100%, 100%)" fill-opacity="1" d="M 46.375 67.070312 C 47.859375 67.1875 49.34375 67.304688 50.828125 67.425781 C 48.511719 78.539062 51.640625 83.488281 56.757812 86.183594 C 50.125 84.28125 45.191406 79.984375 46.375 67.070312 "/>
</g>
</g>
<g clip-path="url(#clip-133)">
<g clip-path="url(#clip-134)">
<path fill="none" stroke-width="1.417" stroke-linecap="round" stroke-linejoin="round" stroke="rgb(0%, 0%, 0%)" stroke-opacity="1" stroke-miterlimit="22.926" d="M 0.0008 -0.0010125 C 1.485175 -0.1182 2.96955 -0.235387 4.453925 -0.356481 C 2.137519 -11.469762 5.266425 -16.418981 10.383613 -19.114294 C 3.7508 -17.21195 -1.182794 -12.915075 0.0008 -0.0010125 Z M 0.0008 -0.0010125 " transform="matrix(1, 0, 0, -1, 46.3742, 67.0693)"/>
</g>
</g>
<g clip-path="url(#clip-135)">
<g clip-path="url(#clip-136)">
<path fill-rule="evenodd" fill="rgb(100%, 100%, 100%)" fill-opacity="1" d="M 50.140625 76.109375 C 50.132812 74.835938 50.125 73.5625 50.121094 72.292969 C 56.976562 71.8125 62.253906 69.660156 67.003906 66.949219 C 68.636719 66.429688 70.269531 65.914062 71.902344 65.398438 C 74.078125 66.167969 77.898438 67.125 83.050781 68.242188 C 76.191406 68.167969 67.640625 68.378906 62.914062 72.867188 C 58.65625 75.714844 54.398438 76.234375 50.140625 76.109375 "/>
</g>
</g>
<g clip-path="url(#clip-137)">
<g clip-path="url(#clip-138)">
<path fill="none" stroke-width="1.417" stroke-linecap="round" stroke-linejoin="round" stroke="rgb(0%, 0%, 0%)" stroke-opacity="1" stroke-miterlimit="22.926" d="M -0.000275 -0.000975 C -0.0080875 1.272462 -0.0159 2.5459 -0.0198063 3.815431 C 6.835662 4.2959 12.113006 6.448244 16.863006 9.159181 C 18.495819 9.678712 20.128631 10.194337 21.761444 10.709962 C 23.937225 9.940431 27.757537 8.9834 32.909881 7.866212 C 26.050506 7.940431 17.499725 7.729494 12.773162 3.241212 C 8.51535 0.393556 4.257537 -0.125975 -0.000275 -0.000975 Z M -0.000275 -0.000975 " transform="matrix(1, 0, 0, -1, 50.1409, 76.1084)"/>
</g>
</g>
<g clip-path="url(#clip-139)">
<g clip-path="url(#clip-140)">
<path fill-rule="evenodd" fill="rgb(100%, 100%, 100%)" fill-opacity="1" d="M 56.757812 86.183594 C 55.320312 85.539062 54.019531 84.507812 52.839844 83.109375 C 54.828125 79.777344 57.542969 77.65625 61.019531 76.796875 C 60.910156 77.382812 60.878906 78 60.878906 78.628906 C 60.1875 79.351562 59.699219 80.269531 59.273438 81.25 C 57.871094 82.265625 56.84375 83.703125 56.757812 86.183594 "/>
<path fill="none" stroke-width="1.417" stroke-linecap="round" stroke-linejoin="round" stroke="rgb(0%, 0%, 0%)" stroke-opacity="1" stroke-miterlimit="22.926" d="M -0.0010875 -0.00169375 C -1.438588 0.642838 -2.739369 1.674088 -3.919056 3.072525 C -1.930775 6.404556 0.784069 8.52565 4.260631 9.385025 C 4.151256 8.799088 4.120006 8.1819 4.120006 7.552994 C 3.4286 6.830338 2.940319 5.912369 2.514537 4.9319 C 1.112194 3.916275 0.08485 2.478775 -0.0010875 -0.00169375 Z M -0.0010875 -0.00169375 " transform="matrix(1, 0, 0, -1, 56.7589, 86.1819)"/>
</g>
</g>
<g clip-path="url(#clip-141)">
<g clip-path="url(#clip-142)">
<path fill-rule="evenodd" fill="rgb(100%, 100%, 100%)" fill-opacity="1" d="M 49.066406 85.289062 C 46.574219 83.503906 44.636719 81.601562 43.527344 79.535156 C 38.367188 84.652344 32.058594 86.183594 25.039062 85.484375 C 24.515625 87.683594 24.851562 89.941406 26.058594 92.261719 C 31.277344 92.363281 36.195312 91.167969 40.9375 89.253906 C 40.9375 89.253906 40.964844 89.242188 40.980469 89.199219 C 41.203125 88.636719 42.386719 87.578125 43.21875 87.191406 C 44.40625 86.636719 47.28125 86.261719 47.28125 86.261719 C 47.878906 85.945312 48.472656 85.621094 49.066406 85.289062 "/>
</g>
</g>
<g clip-path="url(#clip-143)">
<g clip-path="url(#clip-144)">
<path fill="none" stroke-width="1.417" stroke-linecap="round" stroke-linejoin="round" stroke="rgb(0%, 0%, 0%)" stroke-opacity="1" stroke-miterlimit="22.926" d="M -0.00099375 -0.0000625 C -2.493181 1.785094 -4.430681 3.687438 -5.540056 5.753844 C -10.700212 0.636656 -17.008806 -0.894594 -24.028337 -0.195375 C -24.551775 -2.394594 -24.215837 -4.652406 -23.008806 -6.972719 C -17.790056 -7.074281 -12.872087 -5.878969 -8.1299 -3.964906 C -8.1299 -3.964906 -8.102556 -3.953187 -8.086931 -3.910219 C -7.864275 -3.347719 -6.680681 -2.289125 -5.84865 -1.902406 C -4.66115 -1.347719 -1.78615 -0.972719 -1.78615 -0.972719 C -1.188494 -0.656312 -0.594744 -0.332094 -0.00099375 -0.0000625 Z M -0.00099375 -0.0000625 " transform="matrix(1, 0, 0, -1, 49.0674, 85.289)"/>
</g>
</g>
<g clip-path="url(#clip-145)">
<g clip-path="url(#clip-146)">
<path fill-rule="evenodd" fill="rgb(100%, 100%, 100%)" fill-opacity="1" d="M 89.75 101.851562 C 70.078125 96.6875 48.453125 89.957031 40.601562 94.257812 C 40.1875 96.359375 41.167969 97.261719 42.488281 97.875 C 59.046875 99.203125 74.230469 100.527344 89.75 101.851562 "/>
</g>
</g>
<g clip-path="url(#clip-147)">
<g clip-path="url(#clip-148)">
<path fill="none" stroke-width="1.417" stroke-linecap="round" stroke-linejoin="round" stroke="rgb(0%, 0%, 0%)" stroke-opacity="1" stroke-miterlimit="22.926" d="M 0.0009 0.0019375 C -19.670975 5.166 -41.295975 11.896469 -49.147538 7.595688 C -49.5616 5.494125 -48.581131 4.591781 -47.260819 3.9785 C -30.702225 2.650375 -15.518631 1.326156 0.0009 0.0019375 Z M 0.0009 0.0019375 " transform="matrix(1, 0, 0, -1, 89.7491, 101.8535)"/>
</g>
</g>
<g clip-path="url(#clip-149)">
<g clip-path="url(#clip-150)">
<path fill-rule="evenodd" fill="rgb(100%, 100%, 100%)" fill-opacity="1" d="M 61.898438 99.472656 C 63.195312 99.585938 70.796875 100.230469 72.09375 100.339844 C 87.871094 102.792969 102.652344 106.855469 110.730469 121.738281 C 109.878906 125.234375 107.925781 126.53125 105.34375 126.5625 C 104.015625 112.9375 81.492188 105.636719 61.898438 99.472656 "/>
</g>
</g>
<g clip-path="url(#clip-151)">
<g clip-path="url(#clip-152)">
<path fill="none" stroke-width="1.417" stroke-linecap="round" stroke-linejoin="round" stroke="rgb(0%, 0%, 0%)" stroke-opacity="1" stroke-miterlimit="22.926" d="M 0.0008375 0.00174375 C 1.297713 -0.111537 8.899275 -0.756069 10.19615 -0.865444 C 25.973494 -3.318569 40.754744 -7.381069 48.832869 -22.263881 C 47.981306 -25.759975 46.028181 -27.05685 43.44615 -27.0881 C 42.118025 -13.4631 19.594588 -6.162319 0.0008375 0.00174375 Z M 0.0008375 0.00174375 " transform="matrix(1, 0, 0, -1, 61.8976, 99.4744)"/>
</g>
</g>
<g clip-path="url(#clip-153)">
<g clip-path="url(#clip-154)">
<path fill-rule="evenodd" fill="rgb(100%, 100%, 100%)" fill-opacity="1" d="M 72.09375 100.339844 C 78.546875 101.324219 84.894531 102.703125 91.015625 104.964844 C 100.402344 102.410156 110.167969 100.164062 126.789062 103.351562 C 128.601562 102.949219 129.589844 101.648438 130.042969 99.761719 C 119.757812 93.554688 99.648438 103.007812 90.792969 100.898438 C 90.714844 101.285156 90.632812 101.671875 90.554688 102.058594 C 84.402344 101.484375 78.246094 100.914062 72.09375 100.339844 "/>
</g>
</g>
<g clip-path="url(#clip-155)">
<g clip-path="url(#clip-156)">
<path fill="none" stroke-width="1.417" stroke-linecap="round" stroke-linejoin="round" stroke="rgb(0%, 0%, 0%)" stroke-opacity="1" stroke-miterlimit="22.926" d="M 0.00135 0.00055625 C 6.454475 -0.983819 12.802131 -2.362725 18.923225 -4.624444 C 28.309944 -2.069756 38.075569 0.176338 54.696663 -3.011162 C 56.509163 -2.608819 57.497444 -1.308037 57.950569 0.578681 C 47.665413 6.785713 27.556038 -2.667412 18.700569 -0.558037 C 18.622444 -0.944756 18.540413 -1.331475 18.462288 -1.718194 C 12.309944 -1.143975 6.153694 -0.573662 0.00135 0.00055625 Z M 0.00135 0.00055625 " transform="matrix(1, 0, 0, -1, 72.0924, 100.3404)"/>
</g>
</g>
<g clip-path="url(#clip-157)">
<g clip-path="url(#clip-158)">
<path fill-rule="evenodd" fill="rgb(100%, 100%, 100%)" fill-opacity="1" d="M 91.015625 104.964844 C 102.769531 100.929688 114.746094 101.46875 126.789062 103.351562 C 128.640625 103.898438 130.164062 104.660156 130.898438 105.953125 C 131.179688 107.792969 130.460938 108.941406 129.136719 109.667969 C 119.101562 106.683594 108.71875 105.328125 97.445312 108.042969 C 95.304688 107.015625 93.160156 105.988281 91.015625 104.964844 "/>
</g>
</g>
<g clip-path="url(#clip-159)">
<g clip-path="url(#clip-160)">
<path fill="none" stroke-width="1.417" stroke-linecap="round" stroke-linejoin="round" stroke="rgb(0%, 0%, 0%)" stroke-opacity="1" stroke-miterlimit="22.926" d="M -0.001375 -0.00174375 C 11.752531 4.033413 23.729094 3.49435 35.772062 1.611538 C 37.623625 1.064663 39.147062 0.302944 39.881437 -0.990025 C 40.162687 -2.829869 39.443937 -3.978306 38.119719 -4.704869 C 28.084562 -1.720494 17.70175 -0.365025 6.428312 -3.079869 C 4.287687 -2.052525 2.143156 -1.025181 -0.001375 -0.00174375 Z M -0.001375 -0.00174375 " transform="matrix(1, 0, 0, -1, 91.017, 104.9631)"/>
</g>
</g>
<g clip-path="url(#clip-161)">
<g clip-path="url(#clip-162)">
<path fill-rule="evenodd" fill="rgb(100%, 100%, 100%)" fill-opacity="1" d="M 103.957031 112.878906 C 102.046875 111.019531 100.015625 109.464844 97.835938 108.273438 C 108.605469 107.171875 118.75 108.855469 121.101562 113.472656 C 124.042969 123.195312 116.570312 127.070312 108.953125 125.210938 C 109.820312 124.316406 110.394531 123.144531 110.726562 121.734375 C 115.398438 123.554688 120.332031 118.460938 116.554688 115.238281 C 114.039062 113.199219 108.699219 112.6875 103.957031 112.878906 "/>
</g>
</g>
<g clip-path="url(#clip-163)">
<g clip-path="url(#clip-164)">
<path fill="none" stroke-width="1.417" stroke-linecap="round" stroke-linejoin="round" stroke="rgb(0%, 0%, 0%)" stroke-opacity="1" stroke-miterlimit="22.926" d="M 0.00073125 0.00029375 C -1.909425 1.859669 -3.940675 3.414356 -6.120362 4.605763 C 4.649169 5.707325 14.7937 4.023731 17.145263 -0.593456 C 20.086669 -10.316112 12.614013 -14.191112 4.996825 -12.331737 C 5.864013 -11.437206 6.438231 -10.265331 6.770263 -8.855175 C 11.442138 -10.675487 16.375731 -5.581737 12.598388 -2.359081 C 10.082763 -0.320019 4.742919 0.1917 0.00073125 0.00029375 Z M 0.00073125 0.00029375 " transform="matrix(1, 0, 0, -1, 103.9563, 112.8792)"/>
</g>
</g>
<g clip-path="url(#clip-165)">
<g clip-path="url(#clip-166)">
<path fill-rule="evenodd" fill="rgb(100%, 100%, 100%)" fill-opacity="1" d="M 97.835938 108.273438 C 97.707031 108.195312 97.578125 108.117188 97.445312 108.042969 C 107.949219 105.285156 118.523438 106.507812 129.132812 109.664062 C 130.679688 110.269531 131.800781 111.03125 132.707031 112.730469 C 132.109375 114.328125 130.984375 115.339844 129.273438 115.699219 C 126.097656 113.363281 122.925781 112.125 119.75 111.769531 C 114.820312 108.007812 106.820312 107.601562 97.835938 108.273438 "/>
</g>
</g>
<g clip-path="url(#clip-167)">
<g clip-path="url(#clip-168)">
<path fill="none" stroke-width="1.417" stroke-linecap="round" stroke-linejoin="round" stroke="rgb(0%, 0%, 0%)" stroke-opacity="1" stroke-miterlimit="22.926" d="M -0.0012625 -0.0005375 C -0.130169 0.0775875 -0.259075 0.155712 -0.391888 0.229931 C 10.112019 2.987744 20.686237 1.765087 31.295612 -1.391163 C 32.842487 -1.996631 33.963581 -2.75835 34.869831 -4.457569 C 34.272175 -6.055225 33.147175 -7.066944 31.436237 -7.426319 C 28.260456 -5.090381 25.088581 -3.8521 21.9128 -3.496631 C 16.983112 0.265087 8.983112 0.671337 -0.0012625 -0.0005375 Z M -0.0012625 -0.0005375 " transform="matrix(1, 0, 0, -1, 97.8372, 108.2729)"/>
</g>
</g>
<g clip-path="url(#clip-169)">
<g clip-path="url(#clip-170)">
<path fill-rule="evenodd" fill="rgb(100%, 100%, 100%)" fill-opacity="1" d="M 98.40625 115.300781 C 96.164062 113.585938 93.746094 111.980469 91.070312 110.535156 C 74.683594 112.53125 61.09375 114.636719 56.851562 117.128906 C 54.835938 119.007812 54.445312 121.375 54.902344 124 C 55.777344 134.945312 68.441406 128.421875 77.371094 127.433594 C 75.917969 125.546875 74.460938 123.65625 73.007812 121.769531 C 75.582031 119.71875 81.707031 117.601562 98.40625 115.300781 "/>
</g>
</g>
<g clip-path="url(#clip-171)">
<g clip-path="url(#clip-172)">
<path fill="none" stroke-width="1.417" stroke-linecap="round" stroke-linejoin="round" stroke="rgb(0%, 0%, 0%)" stroke-opacity="1" stroke-miterlimit="22.926" d="M 0.00075 0.00141875 C -2.241438 1.716262 -4.659406 3.321731 -7.335188 4.767044 C -23.721906 2.77095 -37.31175 0.665481 -41.553938 -1.826706 C -43.569563 -3.705613 -43.960188 -6.0728 -43.503156 -8.6978 C -42.628156 -19.643113 -29.964094 -13.119675 -21.034406 -12.131394 C -22.487531 -10.244675 -23.944563 -8.35405 -25.397688 -6.467331 C -22.823469 -4.41655 -16.698469 -2.299363 0.00075 0.00141875 Z M 0.00075 0.00141875 " transform="matrix(1, 0, 0, -1, 98.4055, 115.3022)"/>
</g>
</g>
<g clip-path="url(#clip-173)">
<g clip-path="url(#clip-174)">
<path fill-rule="evenodd" fill="rgb(100%, 100%, 100%)" fill-opacity="1" d="M 79.507812 105.40625 C 75.730469 104.09375 71.957031 102.785156 68.179688 101.472656 C 57.480469 101.621094 46.78125 102.660156 36.078125 105.777344 C 35.746094 108.40625 36.902344 110.609375 38.304688 112.742188 C 50.496094 107.828125 64.832031 106.34375 79.507812 105.40625 "/>
</g>
</g>
<g clip-path="url(#clip-175)">
<g clip-path="url(#clip-176)">
<path fill="none" stroke-width="1.417" stroke-linecap="round" stroke-linejoin="round" stroke="rgb(0%, 0%, 0%)" stroke-opacity="1" stroke-miterlimit="22.926" d="M -0.0005875 -0.00005 C -3.777931 1.31245 -7.551369 2.621044 -11.328712 3.933544 C -22.027931 3.785106 -32.72715 2.746044 -43.430275 -0.371144 C -43.762306 -3.00005 -42.606056 -5.203175 -41.203712 -7.335987 C -29.012306 -2.421925 -14.676369 -0.93755 -0.0005875 -0.00005 Z M -0.0005875 -0.00005 " transform="matrix(1, 0, 0, -1, 79.5084, 105.4062)"/>
</g>
</g>
<g clip-path="url(#clip-177)">
<g clip-path="url(#clip-178)">
<path fill-rule="evenodd" fill="rgb(100%, 100%, 100%)" fill-opacity="1" d="M 79.507812 105.40625 C 69.988281 105.988281 60.921875 107.023438 52.40625 108.59375 C 63.636719 108.640625 72.660156 109.730469 78.9375 112.125 C 82.980469 111.59375 87.027344 111.066406 91.070312 110.535156 C 87.597656 108.722656 83.714844 107.019531 79.507812 105.40625 "/>
</g>
</g>
<g clip-path="url(#clip-179)">
<g clip-path="url(#clip-180)">
<path fill="none" stroke-width="1.417" stroke-linecap="round" stroke-linejoin="round" stroke="rgb(0%, 0%, 0%)" stroke-opacity="1" stroke-miterlimit="22.926" d="M -0.0005875 -0.00005 C -9.520119 -0.582081 -18.586525 -1.617237 -27.10215 -3.18755 C -15.871681 -3.234425 -6.848244 -4.324269 -0.5709 -6.7188 C 3.472069 -6.18755 7.518944 -5.660206 11.561913 -5.128956 C 8.089256 -3.316456 4.206444 -1.613331 -0.0005875 -0.00005 Z M -0.0005875 -0.00005 " transform="matrix(1, 0, 0, -1, 79.5084, 105.4062)"/>
</g>
</g>
<g clip-path="url(#clip-181)">
<g clip-path="url(#clip-182)">
<path fill-rule="evenodd" fill="rgb(100%, 100%, 100%)" fill-opacity="1" d="M 52.40625 108.59375 C 51.757812 108.738281 51.105469 108.878906 50.453125 109.019531 C 58.929688 110.613281 65.066406 112.351562 65.367188 114.445312 C 69.699219 113.699219 74.03125 112.953125 78.367188 112.207031 C 72.796875 109.6875 64.515625 108.324219 52.40625 108.59375 "/>
</g>
</g>
<g clip-path="url(#clip-183)">
<g clip-path="url(#clip-184)">
<path fill="none" stroke-width="1.417" stroke-linecap="round" stroke-linejoin="round" stroke="rgb(0%, 0%, 0%)" stroke-opacity="1" stroke-miterlimit="22.926" d="M -0.00065 0.00165 C -0.649088 -0.142881 -1.301431 -0.283506 -1.953775 -0.424131 C 6.522787 -2.017881 12.659506 -3.756163 12.960287 -5.849913 C 17.292319 -5.103819 21.62435 -4.357725 25.960287 -3.611631 C 20.389975 -1.0921 12.108725 0.271181 -0.00065 0.00165 Z M -0.00065 0.00165 " transform="matrix(1, 0, 0, -1, 52.4069, 108.5954)"/>
</g>
</g>
<g clip-path="url(#clip-185)">
<g clip-path="url(#clip-186)">
<path fill-rule="evenodd" fill="rgb(100%, 100%, 100%)" fill-opacity="1" d="M 61.898438 99.472656 C 55.425781 98.941406 48.957031 98.410156 42.488281 97.875 C 40.902344 97.78125 39.628906 97.683594 38.722656 97.839844 C 37.769531 99.601562 37.734375 101.402344 38.261719 103.226562 C 40.871094 102.921875 43.347656 103.214844 45.835938 103.476562 C 53.210938 102.007812 60.675781 101.523438 68.179688 101.472656 C 66.085938 100.808594 63.992188 100.140625 61.898438 99.472656 "/>
</g>
</g>
<g clip-path="url(#clip-187)">
<g clip-path="url(#clip-188)">
<path fill="none" stroke-width="1.417" stroke-linecap="round" stroke-linejoin="round" stroke="rgb(0%, 0%, 0%)" stroke-opacity="1" stroke-miterlimit="22.926" d="M 0.0008375 0.00174375 C -6.471819 0.532994 -12.940569 1.064244 -19.409319 1.5994 C -20.995256 1.69315 -22.268694 1.790806 -23.174944 1.634556 C -24.128069 -0.127162 -24.163225 -1.927944 -23.635881 -3.752162 C -21.026506 -3.447475 -18.549944 -3.740444 -16.061662 -4.002162 C -8.686662 -2.533412 -1.221819 -2.049037 6.282088 -1.998256 C 4.188338 -1.334194 2.094588 -0.666225 0.0008375 0.00174375 Z M 0.0008375 0.00174375 " transform="matrix(1, 0, 0, -1, 61.8976, 99.4744)"/>
</g>
</g>
<g clip-path="url(#clip-189)">
<g clip-path="url(#clip-190)">
<path fill-rule="evenodd" fill="rgb(100%, 100%, 100%)" fill-opacity="1" d="M 119.988281 111.796875 C 123.496094 112.144531 126.492188 113.675781 129.273438 115.699219 C 128.375 117.984375 127.09375 119.613281 124.582031 119.414062 C 123.582031 118.246094 122.839844 117.550781 121.738281 117.09375 C 121.695312 114.9375 121.050781 112.785156 119.988281 111.796875 "/>
</g>
</g>
<g clip-path="url(#clip-191)">
<g clip-path="url(#clip-192)">
<path fill="none" stroke-width="1.417" stroke-linecap="round" stroke-linejoin="round" stroke="rgb(0%, 0%, 0%)" stroke-opacity="1" stroke-miterlimit="22.926" d="M 0.00088125 0.001125 C 3.508694 -0.346531 6.504787 -1.877781 9.286037 -3.901219 C 8.3876 -6.186375 7.10635 -7.815281 4.594631 -7.616062 C 3.594631 -6.448094 2.852444 -5.752781 1.750881 -5.29575 C 1.707912 -3.1395 1.063381 -0.987156 0.00088125 0.001125 Z M 0.00088125 0.001125 " transform="matrix(1, 0, 0, -1, 119.9874, 111.798)"/>
</g>
</g>
</svg>
