<?xml version="1.0" standalone="no"?>
<!DOCTYPE svg PUBLIC "-//W3C//DTD SVG 20010904//EN"
 "http://www.w3.org/TR/2001/REC-SVG-20010904/DTD/svg10.dtd">
<svg version="1.0" xmlns="http://www.w3.org/2000/svg"
 width="600.000000pt" height="600.000000pt" viewBox="0 0 600.000000 600.000000"
 preserveAspectRatio="xMidYMid meet">
<metadata>
Created by potrace 1.16, written by Peter Selinger 2001-2019
</metadata>
<g transform="translate(0.000000,600.000000) scale(0.100000,-0.100000)"
fill="#000000" stroke="none">
<path d="M1140 5290 c13 -19 38 -53 56 -75 25 -32 54 -107 54 -140 0 -4 -18
17 -40 46 -37 49 -85 92 -64 58 25 -42 117 -148 125 -143 5 3 9 0 9 -6 0 -7
-8 -9 -21 -5 -14 5 -19 3 -15 -3 4 -6 -2 -10 -14 -9 -13 1 -43 28 -75 67 -69
84 -134 156 -135 150 0 -11 181 -246 222 -287 12 -12 19 -25 15 -29 -3 -4 9
-19 27 -34 19 -14 58 -56 88 -92 29 -36 98 -119 153 -184 215 -257 433 -521
461 -559 31 -41 69 -119 41 -82 -8 9 -19 17 -25 17 -6 0 -15 8 -21 17 -5 10
-12 16 -15 13 -2 -3 18 -32 44 -65 27 -32 48 -60 46 -62 -2 -2 -16 1 -32 7
-76 29 -250 70 -297 70 -58 0 -77 -12 -77 -46 0 -32 52 -67 138 -94 63 -19 72
-25 67 -41 -4 -11 -2 -19 5 -19 6 0 8 5 5 10 -12 20 6 10 30 -16 32 -35 32
-20 0 21 l-24 32 47 -5 c26 -3 49 -8 52 -11 3 -3 16 -15 30 -26 l25 -20 -17
21 c-24 27 -23 34 5 34 29 0 62 -30 156 -142 40 -49 75 -88 77 -88 2 0 -34 47
-81 105 -47 58 -85 110 -85 115 0 6 11 10 24 10 18 0 45 -24 107 -97 45 -54
92 -107 103 -118 l20 -20 -15 20 c-9 11 -34 43 -56 70 -54 66 -67 92 -47 92
16 0 97 -88 224 -242 41 -49 77 -92 80 -95 3 -3 35 -41 70 -85 36 -44 71 -84
78 -90 8 -7 -5 -9 -43 -7 -77 5 -103 -3 -111 -34 l-7 -25 -31 28 c-17 15 -23
19 -14 7 10 -11 19 -30 21 -42 2 -12 7 -25 12 -29 4 -5 5 -2 1 5 -4 6 -3 12 3
12 15 0 44 -47 37 -59 -4 -5 -1 -13 5 -17 8 -4 9 -3 5 4 -15 24 14 11 30 -13
9 -14 20 -25 26 -25 9 0 0 12 -34 51 -17 18 -17 19 11 19 15 0 41 -10 57 -22
16 -12 23 -15 17 -7 -16 20 -7 29 25 29 16 0 37 -14 59 -37 33 -36 33 -36 8
-3 -25 32 -26 34 -9 41 21 7 40 -6 88 -61 96 -108 103 -108 17 0 -50 63 -51
65 -30 75 19 8 28 2 72 -45 45 -50 47 -51 16 -10 -18 25 -38 48 -44 52 -5 4 4
8 22 8 27 0 39 -9 83 -65 28 -36 54 -65 57 -65 3 0 -12 21 -33 48 -20 26 -42
53 -47 60 -7 9 -1 12 23 12 26 0 44 -13 107 -76 81 -82 86 -80 14 5 l-46 54
34 -6 c18 -4 37 -7 42 -7 5 0 9 -9 9 -19 0 -11 15 -32 33 -47 17 -15 33 -31
33 -35 1 -5 2 -13 3 -19 1 -12 49 -33 131 -58 65 -20 65 -20 35 -31 -53 -19
-80 -36 -83 -53 -5 -27 66 -66 164 -91 l89 -23 -9 -26 c-18 -51 43 -90 141
-90 34 0 65 -4 69 -9 3 -5 10 -6 16 -3 6 4 8 3 5 -3 -3 -5 3 -15 13 -23 10 -8
17 -17 14 -21 -2 -4 4 -14 14 -21 11 -7 21 -17 23 -23 2 -5 9 -9 16 -7 8 2 13
-7 13 -22 0 -34 -67 -99 -118 -114 -93 -28 -256 25 -478 157 -204 121 -672
449 -690 483 -8 15 -19 28 -25 28 -6 0 -7 -6 -2 -12 9 -16 -33 11 -107 67 -30
23 -126 90 -213 149 -93 64 -155 112 -151 118 4 6 2 8 -4 4 -13 -8 -51 14
-197 112 -232 156 -456 292 -480 292 -33 0 79 -98 220 -192 50 -33 102 -72
118 -86 15 -14 27 -23 27 -19 0 4 25 -9 55 -29 30 -20 55 -39 55 -41 0 -2 -4
-1 -10 2 -5 3 -10 1 -10 -4 0 -6 7 -11 15 -11 14 0 19 -12 16 -32 0 -5 5 -8
13 -8 8 0 25 -12 38 -27 48 -56 61 -56 19 0 -24 31 -48 57 -54 57 -6 0 -8 2
-5 5 16 16 228 -124 259 -170 13 -19 27 -35 32 -35 4 0 7 -5 7 -11 0 -7 6 -17
14 -23 13 -10 215 -251 869 -1036 121 -146 256 -308 299 -360 119 -144 150
-181 188 -223 l34 -39 -27 -20 c-30 -22 -37 -44 -11 -34 9 4 22 2 29 -4 9 -7
16 -6 25 5 11 14 14 13 25 -2 17 -23 10 -33 -21 -33 -15 0 -24 -6 -24 -15 0
-8 7 -15 15 -15 8 0 15 -7 15 -15 0 -23 16 -18 28 10 14 30 23 31 39 6 10 -16
9 -20 -3 -25 -10 -4 -13 -13 -9 -28 6 -21 5 -22 -8 -6 -8 10 -17 15 -21 11 -9
-9 24 -43 42 -43 10 0 13 8 10 25 -3 14 -1 25 3 25 5 0 9 -4 9 -10 0 -5 7 -7
15 -4 22 9 20 -45 -2 -62 -28 -20 -10 -26 30 -9 34 14 37 14 47 -5 10 -18 7
-21 -20 -26 -38 -8 -49 -24 -22 -31 13 -3 18 -11 15 -19 -11 -28 17 -13 33 18
16 31 17 31 31 12 7 -10 22 -28 32 -40 18 -20 18 -21 -1 -33 -16 -10 -23 -9
-36 1 -15 11 -15 11 -5 -3 7 -9 10 -19 6 -22 -10 -10 18 -37 38 -37 20 0 28
10 34 41 4 22 -40 79 -272 355 -96 114 -181 217 -288 349 -62 77 -168 206
-236 286 -68 81 -140 166 -159 190 -19 24 -72 88 -118 143 -46 56 -145 175
-220 266 -152 184 -241 291 -353 424 -42 50 -75 93 -73 95 4 5 212 -126 249
-157 17 -14 29 -29 28 -33 -2 -5 3 -6 10 -3 14 5 151 -89 142 -98 -3 -3 2 -11
12 -19 14 -12 16 -12 8 0 -5 10 -4 12 4 7 6 -4 8 -12 5 -18 -7 -11 55 -80 67
-73 10 7 50 -45 44 -55 -6 -9 12 -23 33 -26 20 -3 15 6 -34 63 -36 42 -49 51
-56 41 -8 -10 -9 -9 -5 3 3 9 0 22 -6 28 -23 23 5 10 56 -26 125 -88 147 -105
141 -114 -3 -5 1 -6 9 -4 7 3 49 -19 93 -50 43 -30 86 -58 94 -62 55 -25 151
-98 182 -140 21 -27 48 -58 60 -69 12 -10 1 6 -25 38 -26 31 -47 59 -47 63 0
12 74 -37 105 -69 17 -17 48 -53 70 -80 22 -27 45 -54 50 -60 6 -6 59 -71 119
-143 59 -73 110 -133 112 -133 3 0 -42 57 -98 127 -139 172 -218 276 -214 280
2 2 32 -10 67 -27 35 -16 72 -30 81 -30 9 0 19 -4 22 -9 9 -14 117 -20 170 -9
42 8 60 20 101 63 57 59 46 63 130 -41 55 -68 316 -376 325 -384 3 -3 25 -30
50 -60 89 -109 262 -310 267 -310 3 0 -8 15 -24 34 -116 140 -257 310 -302
365 -30 36 -95 116 -145 176 -50 61 -96 117 -103 125 -7 8 -44 53 -82 100 -39
47 -71 91 -71 98 0 20 -36 86 -67 122 -15 18 -28 40 -30 49 -5 39 -80 71 -167
71 -59 0 -217 36 -242 55 -18 13 -18 15 -2 31 11 11 33 18 57 19 21 0 37 3 35
6 -5 8 21 19 45 19 10 0 23 -12 30 -26 6 -15 15 -24 18 -20 8 8 53 -42 53 -60
0 -8 10 -14 26 -14 l27 0 -27 33 c-14 17 -36 45 -47 60 l-21 29 78 -7 c156
-14 228 -11 257 8 23 15 26 21 17 37 -6 11 -20 25 -31 31 -37 19 -159 22 -254
5 -49 -9 -97 -16 -107 -16 -9 0 -49 40 -89 90 -40 49 -81 92 -91 96 -10 3 -16
9 -13 14 5 8 -46 75 -69 91 -38 28 283 31 364 4 38 -13 50 -21 50 -37 0 -20
-4 -21 -121 -16 -135 6 -137 -3 -12 -38 53 -14 69 -15 106 -4 47 13 72 42 65
76 -2 11 -24 30 -53 44 -46 23 -61 25 -180 25 -71 0 -160 -4 -197 -8 -46 -5
-68 -4 -68 3 0 6 -35 52 -77 102 -43 50 -127 151 -188 223 -60 72 -143 169
-182 217 -40 47 -73 88 -73 90 0 3 19 2 42 -2 30 -6 50 -18 74 -46 18 -22 33
-33 34 -25 0 8 -10 25 -21 38 -21 22 -21 23 -3 29 73 26 84 34 84 58 0 50 -76
82 -269 115 -209 35 -483 25 -559 -21 l-33 -20 -18 24 c-11 12 -29 34 -41 48
-12 14 -96 113 -185 220 -379 455 -475 575 -471 592 2 10 -1 15 -9 12 -19 -8
-27 12 -10 26 11 10 18 9 30 -4 9 -8 15 -18 15 -21 -1 -4 10 -15 24 -26 14
-11 134 -150 267 -310 133 -159 244 -287 247 -284 3 3 14 -2 24 -12 36 -32 17
0 -43 73 -33 41 -62 74 -65 74 -7 0 15 -38 26 -45 6 -3 10 -11 10 -18 0 -6
-11 4 -24 22 -14 18 -23 38 -21 44 3 7 -13 32 -35 57 -22 25 -37 36 -33 25 6
-20 6 -20 -15 -1 -26 22 -29 41 -6 32 8 -3 -1 14 -22 39 -52 64 -58 60 -12 -7
36 -53 9 -28 -52 47 -34 41 -56 75 -49 75 6 0 18 -8 25 -17 7 -10 14 -13 14
-7 0 6 -11 20 -25 32 -15 13 -25 17 -25 9 0 -16 -64 52 -73 78 -4 12 6 6 27
-17 51 -58 52 -45 1 20 -25 31 -40 59 -35 60 6 2 -7 16 -27 31 -21 15 -45 36
-53 47 -14 18 -14 18 6 2 11 -10 26 -18 32 -18 7 0 12 -4 12 -10 0 -5 5 -10
12 -10 6 0 27 -12 46 -27 20 -15 33 -22 29 -17 -3 6 3 15 13 22 21 13 23 12
187 -195 58 -73 110 -133 116 -133 5 0 8 -3 4 -6 -7 -8 151 -204 165 -204 5 0
7 -4 3 -9 -3 -5 5 -18 18 -28 13 -10 23 -20 23 -23 -2 -12 63 -82 72 -79 11 4
-191 260 -229 292 -12 9 -18 17 -14 17 8 0 -116 153 -157 193 -15 15 -26 27
-23 27 3 0 -25 39 -63 88 -82 104 -107 141 -99 148 3 3 14 1 25 -5 24 -13 61
-15 63 -3 7 43 6 62 -1 62 -5 0 -7 7 -4 15 4 8 2 15 -2 15 -5 0 -15 14 -23 32
-24 53 -150 174 -191 182 -3 1 -10 5 -17 9 -6 4 -19 4 -28 1 -14 -6 -16 -16
-13 -49 l5 -42 -26 13 c-34 18 -56 18 -71 -1 -7 -9 -16 -13 -19 -9 -6 5 -7 9
-10 35 0 5 -5 8 -10 5 -5 -3 -11 4 -14 16 -4 12 -9 19 -13 15 -4 -4 -23 7 -42
25 l-35 33 23 -35z m1175 -1330 c33 -43 68 -81 78 -83 25 -7 22 0 -26 57 -24
28 -54 66 -67 85 l-23 34 125 -5 126 -4 30 -32 c17 -18 36 -32 43 -32 7 0 3
10 -11 25 l-23 25 37 0 c30 0 44 -8 80 -45 25 -25 39 -45 33 -45 -7 0 -59 13
-117 29 -110 31 -115 22 -12 -24 28 -13 52 -28 52 -32 0 -4 28 -37 61 -72 33
-35 68 -75 77 -90 15 -23 53 -68 117 -136 11 -12 33 -39 49 -61 16 -21 72 -89
123 -150 51 -61 93 -116 93 -123 0 -6 8 -11 18 -12 36 -1 -24 -17 -187 -49
-151 -30 -169 -31 -222 -20 -40 9 -63 19 -73 35 -8 12 -21 28 -28 36 -65 69
-302 349 -375 444 -13 17 -28 36 -35 44 -9 11 -5 12 23 6 19 -4 43 -18 54 -31
11 -13 78 -93 150 -179 71 -85 131 -151 133 -145 4 11 -11 32 -106 146 -34 41
-59 80 -56 86 4 6 3 8 -3 5 -12 -8 -56 50 -48 63 3 6 -1 10 -9 10 -8 0 -17 4
-21 9 -3 6 7 6 27 0 18 -5 34 -9 35 -9 1 0 4 -14 8 -30 4 -17 11 -28 16 -24 5
3 9 -2 9 -10 0 -9 15 -31 33 -50 17 -20 58 -64 90 -98 86 -93 87 -94 87 -106
0 -7 4 -12 8 -12 4 0 41 -43 82 -95 41 -52 79 -95 84 -95 5 0 2 8 -6 18 -8 9
-43 53 -78 97 -36 44 -69 83 -75 87 -15 11 14 10 57 -2 35 -10 37 -12 26 -35
-10 -22 -8 -29 12 -50 12 -13 35 -27 51 -30 16 -4 38 -20 50 -36 11 -16 28
-29 36 -29 13 0 12 5 -7 24 l-23 25 29 6 c16 3 47 12 69 19 34 11 39 17 37 37
-2 13 -11 32 -20 42 -20 22 -103 47 -158 47 -55 0 -144 19 -144 31 0 12 17 12
25 -1 3 -5 11 -10 16 -10 6 0 8 4 5 9 -7 11 17 21 50 21 29 0 40 33 25 73 -10
26 -41 38 -41 17 0 -7 -24 -10 -62 -8 -49 2 -64 7 -66 19 -2 12 7 18 32 23 32
6 34 9 31 43 -3 44 -31 70 -83 78 -87 14 -123 28 -143 56 l-20 29 35 0 c69 0
87 26 40 56 -20 14 -32 15 -58 7 -24 -8 -54 -7 -107 3 -73 14 -179 56 -179 71
0 4 -16 25 -35 47 -40 44 -40 42 -20 50 17 6 50 -26 96 -91 17 -24 35 -43 40
-43 6 0 -15 30 -47 67 -55 66 -56 68 -33 74 13 3 29 4 34 2 6 -2 37 -39 70
-83z m908 -754 c9 -7 17 -18 17 -25 0 -6 14 -20 31 -30 l30 -19 -72 -4 c-40
-2 -98 -1 -128 3 -63 7 -145 28 -139 35 8 7 192 52 218 53 14 0 33 -6 43 -13z"/>
<path d="M1445 5280 c72 -38 174 -153 201 -228 9 -25 13 -30 14 -16 0 12 -7
39 -15 60 -13 32 -13 36 -1 21 8 -10 44 -53 80 -95 59 -69 133 -159 387 -472
43 -53 98 -117 123 -143 26 -26 43 -47 40 -47 -4 0 5 -11 19 -24 14 -13 23
-26 21 -29 -3 -3 6 -13 20 -22 14 -10 26 -21 26 -25 0 -4 24 -33 54 -64 30
-31 57 -65 61 -76 3 -11 13 -20 22 -20 11 0 7 9 -13 33 -15 17 -106 127 -203
242 -96 116 -220 264 -276 329 -55 66 -113 135 -130 155 -171 208 -231 277
-244 283 -9 4 -11 7 -3 7 6 1 12 6 12 12 0 5 -4 7 -10 4 -5 -3 -10 -2 -10 2 0
5 -10 13 -22 18 -13 6 -22 18 -22 28 1 9 -2 17 -6 17 -5 0 -11 8 -13 18 -4 16
-5 16 -6 -1 -1 -16 -7 -14 -44 12 -24 16 -57 33 -73 36 -25 5 -23 3 11 -15z"/>
<path d="M946 5088 c-9 -12 -16 -28 -16 -35 0 -15 -16 -17 -23 -3 -3 6 -4 5
-3 -2 1 -7 15 -14 29 -16 25 -3 39 -22 17 -22 -5 0 -10 -5 -10 -11 0 -6 8 -8
19 -4 25 8 51 -22 30 -37 -11 -8 -11 -9 3 -5 20 7 45 -18 28 -28 -6 -3 -8 -11
-5 -16 8 -12 26 8 44 46 8 17 16 24 18 17 3 -6 8 -10 13 -7 4 3 13 -2 19 -9
10 -11 5 -16 -24 -26 -29 -10 -35 -16 -35 -40 0 -31 22 -55 44 -47 8 3 17 -1
20 -9 3 -8 1 -14 -4 -14 -6 0 -10 -4 -10 -9 0 -5 12 -8 28 -7 38 5 46 -3 26
-25 -9 -11 -14 -22 -10 -27 4 -4 18 5 31 21 26 29 55 36 55 13 0 -19 -27 -39
-41 -30 -7 4 -9 3 -5 -4 3 -6 2 -13 -4 -17 -11 -7 9 -45 24 -45 4 0 3 6 -3 14
-8 10 -8 16 2 25 8 6 18 7 22 3 5 -4 5 -2 1 5 -13 23 16 25 40 2 23 -21 23
-23 7 -42 -17 -18 -18 -18 -34 2 -10 12 -21 21 -25 21 -4 0 3 -11 16 -25 13
-14 18 -25 12 -25 -7 0 -12 -5 -12 -11 0 -6 6 -9 14 -6 18 7 62 -38 47 -48 -6
-3 -9 -11 -5 -16 3 -6 16 1 28 15 25 30 38 32 56 11 16 -19 -5 -49 -29 -40 -8
3 -12 3 -8 -1 4 -4 2 -13 -4 -21 -17 -20 5 -16 34 7 33 26 37 25 63 -7 16 -19
22 -23 20 -11 -1 9 -21 38 -44 65 -23 26 -52 62 -64 78 -13 17 -38 45 -55 62
-18 16 -33 35 -33 41 0 6 -10 18 -22 27 -13 8 -22 19 -21 23 1 4 -7 14 -16 24
-17 15 -19 15 -34 -3 -22 -25 -27 -24 -60 16 -27 33 -27 34 -8 44 16 9 22 7
33 -7 13 -18 53 -27 42 -10 -3 5 -10 6 -15 3 -8 -5 -13 7 -11 26 1 3 -12 18
-27 33 -26 25 -32 27 -65 18 -44 -13 -58 2 -25 26 23 16 37 16 32 0 -2 -5 4
-8 14 -8 15 0 14 2 -2 20 -9 10 -22 18 -27 17 -6 -1 -13 4 -16 12 -3 9 0 11 8
6 8 -5 5 3 -6 17 -10 14 -21 24 -23 22 -3 -2 0 -9 7 -16 8 -8 6 -16 -10 -30
-25 -21 -42 -19 -46 6 -5 26 16 45 28 26 5 -8 10 -10 10 -4 0 6 -6 17 -14 23
-11 10 -17 7 -30 -11z"/>
<path d="M697 4960 c17 -25 232 -290 438 -539 44 -54 100 -123 125 -154 25
-31 51 -56 58 -57 6 0 12 -5 12 -10 0 -6 23 -33 50 -60 28 -27 49 -55 48 -62
-2 -7 4 -12 12 -13 8 0 14 -8 12 -17 -1 -9 2 -19 8 -23 6 -4 7 1 4 12 -3 11 4
7 21 -12 15 -16 25 -25 23 -19 -7 25 -201 243 -211 237 -6 -3 -7 -1 -3 6 7 10
-29 60 -106 146 -26 29 -111 130 -312 371 -90 108 -204 231 -179 194z"/>
<path d="M791 4588 c2 -7 -5 -28 -14 -46 -17 -31 -17 -35 -1 -68 19 -41 57
-69 76 -58 7 4 19 16 26 26 7 10 18 16 23 12 11 -7 3 50 -12 77 -17 33 -3 20
24 -20 15 -22 55 -73 90 -113 35 -40 130 -154 212 -253 81 -99 164 -199 184
-221 20 -23 48 -57 63 -76 15 -19 55 -68 88 -109 33 -40 60 -77 60 -81 0 -4 7
-8 15 -8 8 0 15 -5 15 -11 0 -5 -5 -7 -12 -3 -7 4 -8 3 -4 -4 4 -7 13 -12 19
-12 7 0 17 -8 24 -19 6 -10 28 -28 48 -40 l37 -22 -32 41 c-18 22 -41 45 -51
51 -10 5 -19 15 -19 22 0 7 -17 30 -38 53 -75 82 -274 316 -496 581 -125 150
-231 272 -234 271 -4 -1 -26 8 -50 20 -29 15 -42 19 -41 10z"/>
<path d="M2901 4395 c8 -11 33 -42 56 -69 23 -27 40 -53 37 -57 -2 -5 7 -16
21 -25 15 -10 51 -47 81 -83 30 -36 65 -77 78 -91 12 -14 81 -92 152 -175 71
-82 131 -152 134 -155 7 -7 158 -177 191 -215 14 -16 98 -111 185 -210 144
-163 233 -264 319 -367 58 -69 137 -149 143 -144 3 3 -3 16 -14 28 -28 33
-206 231 -294 328 -42 47 -94 105 -115 130 -22 25 -62 70 -90 100 -51 56 -161
181 -225 255 -19 22 -37 42 -40 45 -3 3 -48 55 -100 115 -52 61 -101 117 -109
126 -9 9 -36 40 -61 70 -122 144 -216 245 -234 252 -13 5 -16 11 -9 15 7 4
-13 33 -54 77 -36 39 -60 61 -52 50z"/>
<path d="M1580 3324 c0 -4 16 -26 35 -50 36 -44 44 -61 23 -48 -9 5 -9 3 1 -9
7 -9 17 -15 21 -12 4 3 16 -7 25 -21 9 -15 11 -23 4 -19 -8 6 -10 4 -4 -6 26
-43 49 -67 60 -63 7 3 16 1 20 -5 3 -7 0 -8 -9 -5 -9 3 -16 1 -16 -5 0 -7 7
-14 15 -17 8 -4 15 -12 15 -19 0 -7 7 -15 15 -19 8 -3 15 -12 15 -20 0 -20 17
-29 26 -15 5 8 3 9 -6 4 -9 -5 -11 -4 -6 3 9 15 11 15 27 -5 10 -11 10 -14 2
-9 -7 4 -13 3 -13 -2 0 -6 7 -12 15 -16 8 -3 15 -10 15 -16 0 -19 53 -81 65
-76 6 2 12 -2 12 -10 0 -7 -5 -10 -11 -7 -6 3 -1 -4 11 -16 23 -22 39 -28 28
-11 -3 6 -4 10 -1 10 3 0 10 -10 17 -21 8 -17 8 -20 -1 -14 -7 4 -2 -7 11 -26
13 -19 30 -38 37 -42 6 -4 12 -14 12 -22 0 -7 12 -23 28 -35 15 -12 27 -25 27
-28 0 -12 79 -112 87 -112 4 0 8 -6 8 -14 0 -8 8 -21 18 -28 10 -7 33 -34 51
-60 19 -26 40 -49 47 -52 8 -3 14 -12 14 -21 0 -8 6 -14 13 -12 6 1 11 -6 10
-16 0 -11 4 -16 12 -13 8 3 11 -2 8 -12 -3 -12 9 -25 35 -42 22 -14 38 -30 35
-36 -2 -6 5 -14 16 -17 15 -3 19 -10 15 -22 -4 -10 2 -24 15 -36 11 -11 21
-29 21 -40 0 -15 5 -19 16 -15 8 3 13 2 10 -3 -10 -15 67 -104 80 -93 4 4 4 2
1 -5 -4 -6 8 -29 25 -51 80 -96 93 -114 90 -123 -1 -5 7 -9 18 -9 11 0 20 -7
20 -15 0 -8 15 -29 33 -47 18 -19 36 -42 40 -52 4 -11 13 -16 23 -12 8 3 13 2
11 -2 -3 -4 5 -16 16 -27 11 -11 16 -14 12 -6 -6 10 -4 12 4 7 7 -5 10 -15 7
-23 -3 -8 -2 -12 2 -9 4 2 16 -2 27 -10 10 -8 15 -14 11 -14 -4 0 0 -7 9 -16
23 -23 31 -9 11 20 -9 14 -16 30 -16 36 0 5 -43 63 -95 128 -116 142 -137 168
-167 207 -12 17 -26 32 -30 33 -5 2 -8 10 -8 17 0 8 -6 18 -14 22 -7 4 -89
103 -181 218 -144 180 -246 302 -305 365 -30 32 -410 510 -410 516 0 4 7 1 15
-6 25 -21 23 -7 -2 20 -20 21 -23 21 -18 5 4 -11 -14 3 -39 30 -44 49 -58 73
-33 59 7 -4 9 -3 4 2 -5 5 -12 9 -15 9 -13 0 -32 16 -32 26 0 6 5 7 12 3 7 -4
8 -3 4 5 -4 6 -11 9 -16 6 -5 -3 -11 -1 -15 5 -7 11 -25 14 -25 4z"/>
<path d="M2263 2822 c418 -511 888 -1063 898 -1057 5 4 9 -2 9 -12 1 -10 11
-30 23 -44 20 -24 206 -246 246 -294 68 -83 167 -201 171 -205 3 -3 27 -32 55
-65 27 -33 130 -154 228 -270 539 -632 537 -631 537 -603 0 13 -18 36 -133
173 -23 27 -80 94 -126 150 -46 55 -93 111 -105 125 -101 117 -191 223 -241
285 -100 123 -288 348 -316 380 -15 17 -87 102 -159 190 -172 208 -182 218
-193 203 -6 -9 -7 -7 -3 5 7 22 -60 110 -77 100 -6 -3 -7 -1 -3 5 4 6 -4 24
-18 39 -34 40 -222 267 -351 427 -60 74 -113 135 -117 136 -7 0 83 -119 157
-207 19 -23 35 -45 35 -50 -1 -4 -11 4 -23 18 -102 120 -287 339 -305 359 -11
14 -73 87 -137 163 -64 75 -119 137 -121 137 -2 0 29 -40 69 -88z"/>
<path d="M2863 2596 c0 -8 5 -12 10 -9 6 4 8 -1 4 -11 -4 -10 -3 -15 3 -11 6
3 10 0 10 -8 0 -17 46 -58 56 -49 4 4 4 -1 1 -10 -6 -18 15 -42 28 -30 5 4 5
-1 2 -10 -4 -12 -2 -15 9 -11 8 3 14 -1 14 -11 0 -17 87 -134 217 -292 45 -54
112 -135 148 -179 36 -44 75 -91 87 -105 12 -14 60 -70 106 -125 47 -55 88
-102 92 -105 3 -3 13 -15 21 -26 14 -21 81 -100 163 -191 22 -24 45 -42 52
-39 7 3 10 -2 7 -12 -2 -9 9 -31 24 -48 94 -105 153 -185 146 -197 -3 -5 -1
-7 4 -4 13 8 47 -28 39 -42 -4 -5 3 -15 14 -21 11 -6 20 -20 19 -33 0 -16 -2
-18 -7 -7 -4 8 -13 16 -20 18 -17 3 -6 -13 73 -107 58 -68 84 -88 71 -55 -3 9
-2 12 5 9 5 -4 7 -15 4 -25 -3 -10 -1 -21 5 -25 5 -3 10 -1 10 4 0 26 33 6 84
-51 105 -120 103 -117 89 -131 -3 -4 -15 0 -25 10 -10 9 -20 14 -22 12 -4 -5
193 -243 227 -274 l21 -20 -20 25 c-25 29 -36 67 -23 76 5 3 20 -7 35 -23 21
-24 23 -24 14 -5 -6 12 -9 26 -6 31 7 10 -151 197 -164 194 -5 -2 -7 3 -4 11
3 8 -3 16 -16 19 -11 3 -19 11 -18 18 2 7 -4 13 -12 14 -8 1 -14 7 -12 14 1 7
-2 10 -9 5 -9 -5 -10 -2 -6 10 4 10 3 15 -3 11 -6 -3 -10 1 -10 11 0 9 -16 37
-36 61 l-36 44 38 -7 c22 -3 45 -12 53 -18 11 -8 13 -8 8 1 -4 7 1 14 12 18
11 3 36 17 56 31 20 13 41 21 47 18 7 -4 8 -2 4 4 -4 6 3 30 15 53 11 23 21
56 21 73 0 41 -25 112 -39 109 -6 -1 -10 5 -9 15 0 10 -18 28 -48 47 -27 16
-70 50 -94 75 -25 25 -40 36 -34 24 6 -11 18 -26 26 -34 24 -19 19 -30 -11
-31 -16 0 -37 -4 -48 -9 -15 -6 -28 0 -54 24 l-34 31 22 -32 22 -33 -32 -40
c-30 -37 -33 -38 -46 -22 -14 16 -14 16 -9 0 4 -13 0 -18 -15 -18 -18 0 -18
-2 -5 -22 14 -22 16 -51 4 -63 -3 -3 -36 27 -73 67 -37 40 -64 66 -59 58 5
-10 0 -8 -14 4 -26 23 -28 30 -5 22 15 -6 15 -5 -1 13 -10 11 -23 18 -27 15
-5 -3 -9 0 -9 6 0 19 -41 71 -51 65 -5 -4 -9 3 -9 13 0 11 -25 43 -56 71 -30
28 -53 55 -50 60 3 4 -4 17 -17 27 -21 19 -21 19 -7 0 10 -13 10 -17 2 -12 -7
4 -21 25 -32 47 -11 21 -25 39 -30 39 -6 0 -10 6 -10 14 0 7 -8 20 -17 27 -17
13 -17 13 -3 -6 14 -19 14 -19 -2 -6 -10 7 -18 20 -18 28 0 15 -29 52 -238
302 -79 94 -148 171 -153 171 -6 0 -7 5 -4 10 3 6 2 10 -2 10 -5 0 -16 13 -25
28 -25 42 -187 204 -197 197 -5 -3 -13 0 -17 6 -4 8 -3 9 4 5 28 -17 6 15 -69
104 -109 128 -126 145 -126 126z"/>
<path d="M3111 1563 c26 -34 104 -128 139 -169 19 -22 44 -52 54 -65 10 -13
42 -51 70 -84 28 -33 77 -91 108 -130 31 -38 65 -79 75 -90 55 -61 93 -116 93
-135 0 -13 12 -28 34 -41 22 -12 36 -30 39 -48 4 -21 15 -32 37 -40 18 -6 29
-15 25 -21 -10 -16 22 -60 44 -60 10 0 18 -7 18 -15 0 -8 -4 -15 -9 -15 -16 0
-8 -27 15 -48 25 -24 47 -29 47 -11 0 7 9 0 20 -14 11 -14 20 -32 20 -40 0
-20 48 -77 65 -77 7 0 33 -27 57 -61 78 -109 162 -211 166 -200 2 6 8 8 14 5
7 -5 9 2 4 20 -6 25 -5 27 15 21 20 -7 19 -3 -12 36 -28 36 -161 194 -243 289
-12 14 -50 62 -85 108 -35 45 -67 82 -71 82 -4 0 -15 16 -26 35 -10 20 -29 43
-41 51 -13 8 -23 20 -23 28 0 7 -19 31 -42 52 -24 22 -109 119 -191 217 -81
97 -150 177 -153 177 -8 0 49 -74 69 -88 10 -8 27 -32 37 -55 11 -23 33 -56
48 -74 15 -17 35 -43 46 -57 10 -14 22 -23 27 -21 10 7 33 -34 25 -43 -3 -3
-6 0 -6 7 0 7 -4 10 -9 7 -5 -3 -22 11 -37 32 -28 36 -73 89 -105 121 -8 9
-93 109 -188 224 -95 114 -175 207 -178 207 -3 0 1 -8 8 -17z"/>
<path d="M3356 1425 c28 -33 73 -87 100 -121 27 -34 94 -115 149 -180 54 -65
155 -186 224 -269 68 -82 141 -168 160 -191 20 -22 74 -87 121 -145 108 -133
132 -160 207 -239 68 -71 84 -69 29 3 -19 25 -31 48 -28 52 4 4 2 5 -3 3 -6
-2 -40 31 -75 72 -35 41 -71 82 -80 90 -32 31 -296 336 -559 647 -150 178
-278 326 -284 330 -7 4 11 -20 39 -52z"/>
<path d="M3880 1192 c0 -5 9 -17 20 -27 11 -10 20 -24 20 -32 0 -7 4 -13 9
-13 8 0 310 -359 414 -493 63 -80 248 -297 254 -297 12 0 -22 43 -273 345
-105 126 -200 239 -210 250 -11 11 -63 75 -117 142 -96 121 -117 143 -117 125z"/>
<path d="M4004 869 c-14 -16 -15 -23 -6 -26 6 -3 12 -11 12 -19 0 -21 14 -17
42 11 l26 25 16 -25 c16 -24 15 -25 -3 -25 -26 0 -51 -10 -51 -21 0 -5 7 -9
15 -9 9 0 15 -9 15 -21 0 -12 5 -19 13 -16 7 2 16 -10 22 -27 7 -20 19 -32 35
-36 17 -4 24 -12 22 -25 -3 -13 1 -16 14 -11 14 5 15 4 4 -9 -14 -17 -14 -17
22 -19 15 -1 25 1 22 5 -2 4 3 12 11 19 13 11 18 10 29 -6 13 -17 11 -19 -21
-30 -46 -16 -52 -24 -25 -31 12 -3 22 -12 22 -20 0 -9 6 -13 15 -9 11 4 15 -1
15 -19 0 -14 5 -25 10 -25 6 0 10 -7 10 -16 0 -11 6 -14 20 -9 16 5 20 2 20
-18 0 -24 27 -57 47 -57 19 0 54 -47 47 -64 -5 -12 -1 -16 17 -14 20 3 23 -1
21 -20 -3 -22 13 -52 27 -52 3 0 12 4 20 9 13 8 13 12 0 28 -13 17 -13 17 4 4
24 -19 34 -6 14 17 -10 10 -17 24 -17 30 0 7 -4 12 -10 12 -5 0 -10 -5 -10
-11 0 -5 -4 -8 -8 -5 -4 2 -7 17 -7 32 1 19 -9 38 -32 61 -18 19 -33 36 -33
39 0 6 -24 37 -68 89 -9 12 -24 25 -32 30 -13 7 -13 6 -2 -7 15 -18 3 -31 -17
-19 -8 5 -11 17 -6 30 5 16 -1 32 -22 58 -15 20 -31 41 -34 46 -4 5 -15 5 -26
-2 -17 -8 -24 -6 -43 14 -23 25 -15 36 8 13 9 -9 12 -9 12 2 0 9 5 8 15 -6 8
-10 14 -14 14 -9 0 25 -35 51 -68 51 -37 -1 -47 10 -31 34 9 13 12 12 25 -4 8
-11 17 -18 19 -15 9 9 -96 119 -113 119 -10 0 -26 -10 -37 -21z"/>
</g>
</svg>
