<?xml version="1.0" standalone="no"?>
<!DOCTYPE svg PUBLIC "-//W3C//DTD SVG 20010904//EN"
 "http://www.w3.org/TR/2001/REC-SVG-20010904/DTD/svg10.dtd">
<svg version="1.0" xmlns="http://www.w3.org/2000/svg"
 width="600.000000pt" height="600.000000pt" viewBox="0 0 600.000000 600.000000"
 preserveAspectRatio="xMidYMid meet">
<metadata>
Created by potrace 1.16, written by Peter Selinger 2001-2019
</metadata>
<g transform="translate(0.000000,600.000000) scale(0.100000,-0.100000)"
fill="#000000" stroke="none">
<path d="M0 4490 l0 -1510 28 12 c15 7 36 20 48 30 12 11 38 23 58 29 l36 10
2 62 c1 34 4 98 6 142 6 135 4 183 -7 217 -10 34 -11 59 -11 380 -1 240 40
626 68 661 7 8 40 20 75 27 34 7 86 25 114 41 61 34 63 34 63 14 0 -12 9 -14
43 -9 23 3 58 11 77 17 19 6 43 10 53 8 17 -2 76 13 172 44 22 8 47 14 55 14
34 -1 97 15 131 32 20 10 45 16 56 13 12 -3 52 6 91 20 38 13 72 22 76 19 6
-6 116 26 196 57 25 10 63 23 85 29 181 51 218 62 234 71 11 5 28 10 37 10 10
0 38 10 62 22 28 13 66 22 101 22 56 2 433 -24 631 -43 128 -12 324 -27 565
-41 755 -45 1222 -83 1238 -99 10 -10 22 -62 43 -180 15 -86 33 -858 26 -1149
-2 -111 0 -133 11 -130 21 5 197 169 197 183 0 26 37 25 129 -5 114 -37 201
-64 256 -78 22 -6 60 -16 85 -22 50 -13 252 -90 315 -120 22 -10 68 -26 102
-34 34 -9 92 -30 129 -46 l68 -31 20 25 c25 29 57 46 87 46 12 0 51 10 86 21
l63 22 0 1353 0 1354 -3000 0 -3000 0 0 -1510z"/>
<path d="M1507 4193 c-10 -3 -20 -18 -24 -35 -4 -20 -14 -33 -32 -39 -14 -6
-33 -17 -42 -25 -15 -13 -20 -12 -50 16 l-34 30 -27 -31 c-16 -18 -28 -27 -28
-20 0 6 -4 11 -10 11 -5 0 -10 -7 -10 -15 0 -7 -8 -18 -17 -24 -25 -13 -9 -25
16 -12 13 7 22 8 26 1 3 -5 13 -10 21 -10 11 0 13 6 9 20 -3 11 -2 20 3 20 15
0 21 -37 8 -50 -6 -6 -16 -25 -22 -43 -9 -25 -16 -31 -34 -29 -13 1 -28 9 -34
16 -6 8 -22 16 -36 18 -19 2 -24 8 -23 26 3 21 -26 34 -28 12 -1 -5 -2 -14 -3
-19 0 -5 -4 -12 -7 -16 -16 -16 5 -45 37 -51 19 -3 34 -11 34 -16 0 -5 9 -7
19 -3 11 3 22 1 26 -5 4 -6 -4 -10 -20 -10 -16 0 -24 -4 -20 -10 4 -6 1 -17
-5 -25 -9 -11 -9 -15 -1 -15 6 0 11 -7 11 -16 0 -8 5 -12 11 -8 6 3 9 15 6 25
-4 14 0 19 17 19 12 0 28 6 35 13 10 10 11 9 6 -5 -4 -10 -16 -18 -28 -18 -27
0 -14 -13 16 -15 28 -2 34 -31 11 -57 -21 -22 -24 -49 -9 -61 6 -6 6 -10 -2
-14 -18 -7 -16 -26 2 -20 9 4 22 -5 35 -23 15 -21 17 -30 8 -33 -10 -4 -10 -6
0 -6 7 -1 22 4 32 9 18 10 19 8 14 -20 -5 -23 -3 -30 9 -30 8 0 29 -13 46 -29
28 -26 33 -28 47 -14 15 16 96 20 136 7 28 -8 42 36 17 54 -23 16 -24 31 -3
60 21 31 54 14 54 -29 0 -26 2 -29 19 -19 27 14 31 13 31 -10 0 -11 7 -20 16
-20 8 0 12 -5 9 -10 -5 -8 -11 -8 -20 0 -17 14 -24 2 -23 -36 1 -35 -36 -84
-64 -84 -10 0 -18 -5 -18 -11 0 -13 53 -2 58 12 2 5 10 9 18 9 8 0 14 5 14 10
0 13 27 13 35 1 3 -6 -10 -17 -30 -27 -35 -16 -50 -42 -17 -29 30 12 37 10 36
-7 -2 -24 17 -22 46 4 17 16 25 18 28 9 2 -7 15 -16 28 -21 18 -7 24 -17 24
-40 0 -28 2 -29 33 -23 28 6 31 5 19 -10 -11 -12 -11 -19 -1 -35 10 -16 10
-23 -4 -37 -9 -9 -17 -24 -16 -33 0 -14 2 -14 6 -2 20 49 58 52 80 5 9 -19 23
-35 30 -35 19 0 16 13 -8 28 -11 7 -18 19 -15 27 3 8 0 17 -5 21 -6 3 -8 17
-5 30 5 17 2 24 -8 24 -8 0 -17 4 -20 9 -9 14 4 41 20 41 8 0 14 8 14 19 0 31
26 46 56 32 14 -6 35 -11 47 -10 19 1 18 3 -9 14 -17 8 -36 20 -42 28 -10 11
-7 16 15 26 l26 12 -21 15 c-26 18 -29 62 -6 71 9 3 23 -3 35 -16 12 -12 32
-21 49 -21 17 0 30 -4 30 -10 0 -5 5 -10 10 -10 6 0 10 7 10 15 0 8 -4 15 -10
15 -5 0 -10 14 -10 30 0 31 23 42 33 16 7 -17 41 -11 58 10 17 21 56 17 74 -8
15 -21 17 -22 26 -5 5 9 18 17 29 17 25 0 50 10 50 21 0 5 -6 9 -13 9 -6 0
-17 16 -23 35 -9 29 -9 35 4 35 8 0 12 6 9 14 -9 24 15 45 41 35 12 -4 22 -14
22 -20 0 -7 11 -9 33 -5 17 4 48 8 67 9 24 1 36 7 38 20 2 9 -2 17 -8 17 -6 0
-8 5 -4 11 3 6 17 9 30 6 28 -5 35 15 20 56 -15 38 -37 36 -29 -4 5 -26 3 -30
-13 -29 -36 4 -46 0 -40 -15 7 -19 -8 -19 -39 1 -21 13 -22 19 -13 40 6 13 16
24 22 24 6 0 7 3 0 10 -13 13 -54 1 -54 -16 0 -16 -26 -19 -35 -4 -3 5 -12 7
-20 3 -10 -3 -15 1 -14 13 1 35 14 54 49 72 28 14 34 22 32 42 -2 14 -5 26 -7
28 -6 7 -44 -32 -39 -40 3 -4 -4 -8 -15 -8 -11 0 -26 -6 -34 -14 -21 -21 -54
-9 -72 27 -14 29 -14 32 7 54 l21 23 -35 0 c-38 0 -48 12 -48 55 0 15 -7 25
-22 29 -38 10 -46 7 -50 -16 -2 -15 -10 -23 -23 -23 -11 -1 -26 -4 -33 -9 -7
-4 -22 -4 -35 0 -12 5 -25 8 -29 9 -20 1 -19 18 3 42 19 21 20 25 6 20 -10 -4
-35 -7 -54 -7 -32 0 -35 -2 -31 -25 4 -17 1 -25 -8 -25 -8 0 -14 7 -14 15 0 9
-9 15 -22 15 -12 0 -36 5 -55 12 -29 11 -36 9 -64 -11 -21 -16 -34 -20 -41
-13 -6 6 -17 8 -25 5 -9 -4 -16 2 -20 16 -7 27 -63 31 -63 4 0 -15 -2 -16 -10
-3 -7 11 -11 9 -19 -12 -13 -33 -44 -28 -83 13 -26 29 -35 31 -71 22z m493
-305 c0 -16 5 -19 25 -16 14 3 28 1 31 -3 3 -5 -2 -9 -11 -9 -10 0 -15 -7 -13
-17 2 -10 12 -17 22 -16 13 1 16 -4 13 -19 -3 -10 1 -35 9 -55 19 -45 12 -63
-26 -63 -28 0 -30 -2 -30 -40 0 -22 -6 -49 -12 -60 -9 -15 -10 -23 -2 -28 6
-4 14 -19 17 -33 6 -24 4 -27 -30 -32 -46 -8 -65 7 -37 28 10 8 25 15 32 15
15 0 16 20 1 20 -7 0 -9 9 -5 23 19 69 19 69 0 65 -26 -4 -30 29 -5 37 25 8
26 18 5 36 -10 8 -14 22 -11 39 6 29 -6 55 -25 55 -7 0 -13 6 -12 13 1 6 2 19
3 27 0 8 8 15 17 15 14 0 14 -3 4 -15 -10 -12 -10 -15 3 -15 19 0 29 38 16 61
-7 15 -6 17 6 13 8 -4 15 -15 15 -26z m-72 -155 c15 -33 16 -53 2 -53 -5 0
-10 -7 -10 -15 0 -9 -8 -18 -17 -21 -10 -3 -28 -11 -40 -17 -17 -7 -30 -7 -48
1 -15 7 -27 8 -30 2 -12 -19 -25 -10 -25 18 0 41 86 106 145 111 6 0 16 -11
23 -26z"/>
<path d="M1674 3358 c-4 -6 5 -22 21 -36 24 -21 27 -26 14 -36 -7 -6 -14 -24
-14 -41 0 -24 5 -31 23 -33 13 -2 25 3 28 12 8 21 33 20 69 -4 17 -11 38 -20
48 -20 28 0 20 27 -13 42 -17 7 -29 19 -27 28 1 9 -10 19 -30 24 -20 6 -38 22
-50 43 -18 34 -54 45 -69 21z"/>
<path d="M5955 3199 c-16 -5 -43 -10 -60 -11 -16 0 -41 -7 -55 -14 -14 -8 -38
-18 -53 -24 l-28 -10 27 -50 c15 -27 33 -50 41 -50 8 0 31 9 53 20 22 11 48
20 60 20 13 0 20 -7 20 -20 0 -13 7 -20 20 -20 18 0 20 7 20 85 0 47 -3 85 -7
84 -5 0 -21 -5 -38 -10z"/>
<path d="M5990 2969 c0 -7 -22 -9 -66 -5 -64 5 -65 5 -58 -17 11 -36 25 -47
50 -41 26 7 29 -1 15 -38 -9 -24 12 -100 53 -188 16 -34 16 -28 14 133 -2 92
-4 167 -5 167 -2 0 -3 -5 -3 -11z"/>
<path d="M1 2647 l-1 -185 37 34 c39 36 48 40 58 24 3 -5 17 -10 31 -10 31 0
32 -27 2 -39 -13 -5 -32 -19 -43 -31 l-20 -23 25 7 c14 4 39 9 56 12 l31 6 -1
99 c-1 54 -2 94 -4 89 -6 -17 -49 -11 -57 8 -4 9 -9 50 -12 90 -3 39 -9 73
-12 73 -3 1 -19 3 -34 5 -16 1 -35 8 -42 14 -11 9 -14 -20 -14 -173z"/>
<path d="M3732 2768 c-6 -6 -22 -13 -34 -15 -12 -2 -29 -10 -38 -18 -9 -8 -24
-15 -33 -15 -10 0 -17 -8 -17 -20 0 -11 -6 -20 -13 -20 -7 0 -23 -10 -34 -22
-11 -13 -33 -32 -49 -43 -15 -11 -46 -37 -67 -57 -22 -21 -43 -38 -47 -38 -4
0 -12 -12 -19 -26 -6 -15 -14 -24 -17 -21 -3 3 -17 -5 -31 -18 -14 -12 -34
-31 -46 -40 -11 -10 -39 -20 -63 -23 -47 -5 -49 -7 -34 -46 14 -37 3 -56 -34
-56 -50 0 -70 -10 -92 -43 -11 -18 -26 -31 -33 -29 -6 1 -15 -9 -20 -22 -9
-21 -36 -41 -52 -38 -4 1 -9 -13 -13 -29 -5 -25 -9 -30 -23 -23 -10 4 -35 9
-55 12 -47 5 -50 -13 -11 -52 18 -18 23 -30 16 -34 -6 -4 -15 -23 -20 -42 -7
-25 -15 -35 -29 -35 -11 -1 -35 -15 -52 -33 -34 -35 -69 -52 -108 -52 -13 0
-24 -4 -24 -9 0 -5 -18 -12 -40 -16 -23 -4 -40 -12 -40 -20 0 -15 -14 -20 -77
-30 -42 -7 -103 14 -103 35 0 6 -12 10 -27 10 -26 0 -26 -1 -7 -15 19 -15 19
-15 -1 -31 -19 -14 -20 -13 -23 11 -2 14 -10 29 -17 31 -8 3 -12 11 -9 18 3 7
1 23 -4 37 -6 16 -5 37 4 63 8 22 13 40 12 41 -15 11 -88 12 -103 1 -19 -14
-13 -36 10 -36 19 0 65 -21 65 -30 0 -17 -125 -10 -160 8 -26 14 -54 18 -107
17 -53 -1 -74 2 -78 13 -2 7 -10 10 -16 6 -7 -4 -9 0 -5 13 4 12 -1 30 -14 46
-11 14 -16 28 -11 31 5 3 7 15 4 25 -3 13 2 23 16 30 12 7 21 19 21 27 0 14
-2 14 -22 0 -12 -9 -31 -13 -45 -10 -13 4 -23 2 -23 -2 0 -5 -12 -9 -27 -10
-16 0 -37 -2 -48 -5 -16 -3 -20 1 -18 19 2 12 -2 22 -7 22 -6 0 -10 -6 -10
-14 0 -7 -11 -21 -25 -30 -24 -16 -25 -15 -25 3 0 11 5 21 12 23 17 6 -23 57
-45 58 -10 0 -22 10 -27 23 -20 49 -69 87 -111 87 -19 0 -21 -4 -15 -32 8 -42
12 -44 36 -23 19 18 20 17 20 -3 0 -11 5 -24 10 -27 6 -3 10 -17 10 -30 0 -18
4 -23 15 -19 18 7 20 -12 3 -20 -7 -3 -4 -4 7 -3 14 1 20 -4 20 -18 0 -14 -7
-20 -24 -20 -13 0 -26 -6 -28 -12 -3 -8 4 -13 19 -13 18 0 20 -2 8 -10 -9 -5
-19 -5 -27 2 -7 5 -24 7 -39 4 -14 -4 -32 -2 -40 4 -19 17 -29 6 -32 -34 -2
-29 1 -35 19 -38 28 -4 38 -28 12 -28 -26 0 -43 19 -43 47 0 13 -4 23 -10 23
-5 0 -10 -7 -10 -15 0 -9 -7 -18 -15 -21 -10 -4 -13 -14 -9 -29 3 -13 1 -26
-5 -30 -6 -3 -9 -10 -6 -15 3 -5 -4 -7 -16 -5 -22 4 -22 4 2 -21 36 -38 77
-56 119 -52 21 2 36 0 34 -3 -2 -4 8 -10 24 -14 69 -17 86 -48 55 -103 -22
-39 -12 -58 34 -65 43 -7 274 -123 311 -156 27 -24 40 -27 66 -16 13 6 21 4
24 -3 2 -7 10 -12 18 -12 8 0 14 -4 14 -10 0 -5 -16 -10 -35 -10 -33 0 -34 -1
-25 -25 5 -14 7 -25 3 -25 -3 0 2 -9 12 -20 10 -12 25 -18 32 -16 7 3 25 -1
40 -9 25 -13 26 -15 6 -15 -12 0 -24 6 -26 13 -4 9 -6 9 -6 -1 -1 -13 38 -32
66 -32 9 0 13 6 9 15 -9 24 4 45 28 45 45 0 66 12 66 36 0 27 17 32 26 9 4 -8
10 -15 16 -15 13 0 38 -26 38 -39 0 -6 19 -11 44 -11 33 0 52 -7 82 -30 27
-22 47 -30 68 -28 40 4 45 26 8 39 -37 13 -55 66 -29 81 21 11 41 32 73 74 14
18 47 44 71 56 25 13 53 33 62 46 9 13 26 33 38 44 12 11 19 27 16 34 -3 8 0
14 6 14 6 0 28 17 49 38 65 62 154 144 216 197 33 28 71 61 85 75 15 14 83 77
151 142 189 176 195 182 335 318 181 178 245 246 245 264 0 9 -6 13 -14 10 -8
-3 -17 0 -21 6 -5 8 -11 7 -23 -2 -12 -10 -16 -10 -19 0 -6 15 -16 15 -31 0z
m-1772 -873 c47 -39 48 -40 73 -21 11 9 29 11 50 7 17 -4 49 -2 70 3 34 9 41
8 53 -9 8 -10 14 -27 14 -37 0 -10 5 -18 10 -18 6 0 10 -6 10 -14 0 -8 4 -16
9 -18 5 -1 3 -11 -4 -22 -12 -16 -18 -17 -46 -7 -18 6 -43 11 -57 11 -14 0
-36 9 -48 21 -15 14 -40 22 -80 25 -81 7 -101 19 -107 62 -6 31 -2 52 8 52 2
0 22 -16 45 -35z"/>
<path d="M5 2400 c-9 -15 5 -32 21 -26 18 7 18 -4 -1 -30 -20 -30 -9 -35 59
-29 53 5 59 4 44 -8 -10 -7 -42 -19 -73 -26 l-55 -12 0 -44 c0 -34 4 -42 16
-41 25 2 29 -24 5 -31 -27 -7 -28 -42 -2 -74 62 -79 70 -140 11 -80 -26 25
-30 27 -30 10 0 -22 142 -174 182 -195 15 -8 39 -26 53 -39 21 -22 31 -25 62
-19 21 3 43 13 50 21 7 10 22 14 37 11 14 -3 23 -1 20 3 -3 5 4 9 15 9 31 0
26 17 -6 23 -16 3 -37 -1 -50 -9 -12 -8 -30 -14 -40 -14 -15 0 -16 -2 -3 -11
11 -7 3 -8 -29 -3 -72 10 -87 35 -95 156 -4 57 -9 163 -10 236 -2 103 -6 136
-17 144 -11 7 -11 11 -1 15 14 5 17 73 2 73 -5 0 -32 -9 -60 -20 -28 -11 -53
-20 -57 -20 -3 0 -3 9 0 20 4 16 0 20 -18 20 -13 0 -27 -4 -30 -10z"/>
<path d="M5680 2356 c0 -8 5 -18 10 -21 15 -9 2 -25 -20 -25 -20 0 -36 -17
-26 -27 3 -3 17 -6 31 -7 14 -1 25 -4 25 -8 0 -5 0 -20 0 -34 0 -14 -4 -23
-10 -19 -5 3 -10 0 -10 -8 0 -18 -27 -31 -58 -28 -20 2 -22 -1 -16 -25 5 -18
3 -25 -4 -20 -6 4 -8 -2 -5 -15 l6 -22 -32 19 -32 19 22 18 23 18 -28 -7 c-19
-4 -31 -2 -36 6 -6 10 -15 8 -37 -8 -24 -17 -29 -27 -25 -51 2 -18 11 -31 23
-34 14 -4 19 -14 19 -43 0 -35 -1 -36 -18 -21 -24 22 -29 21 -35 -3 -3 -11 -1
-20 4 -20 5 0 9 -7 9 -15 0 -18 -20 -20 -20 -2 -1 23 -30 -27 -30 -51 0 -19 3
-22 13 -14 17 14 57 4 57 -14 0 -8 8 -14 18 -14 11 0 17 -8 17 -24 0 -20 -3
-22 -22 -15 -13 5 -25 4 -28 -1 -4 -6 -1 -10 5 -10 7 0 25 -10 40 -22 16 -13
54 -41 86 -63 31 -22 63 -46 70 -53 8 -7 51 -42 96 -78 176 -137 169 -129 162
-188 -6 -47 -95 -503 -130 -661 -8 -38 -14 -85 -12 -102 2 -18 0 -33 -4 -33
-4 0 -8 -16 -8 -35 0 -52 -46 -144 -77 -156 -31 -13 -43 -10 -43 10 0 13 -9
21 -27 25 -31 6 -103 10 -118 6 -21 -5 -45 1 -45 11 0 7 11 9 30 5 37 -7 39 7
4 23 -22 10 -28 9 -40 -6 -12 -16 -13 -16 -14 -1 0 22 -37 33 -56 17 -13 -10
-13 -14 1 -29 20 -23 19 -27 -10 -32 -13 -3 -22 -1 -19 3 3 5 1 9 -4 9 -14 0
-53 41 -47 50 3 4 -6 11 -20 14 -14 4 -25 12 -25 20 0 21 11 26 27 11 24 -24
46 -19 39 9 -4 16 0 29 14 41 11 10 20 24 20 32 0 18 39 17 46 -2 4 -8 12 -15
19 -15 7 0 15 -9 18 -20 4 -15 14 -20 42 -20 34 0 37 2 33 23 -4 20 -1 23 24
19 20 -3 28 0 28 10 0 9 12 24 26 34 31 23 47 57 49 103 1 18 8 37 15 41 8 5
10 15 5 26 -10 23 -6 68 6 72 5 2 9 10 9 18 0 8 4 14 9 14 6 0 7 16 4 36 -5
30 -3 36 15 41 22 5 41 61 28 82 -3 5 0 16 8 23 8 8 14 36 14 71 0 54 -1 57
-24 57 -14 0 -23 5 -21 13 1 8 -10 12 -33 12 -25 0 -34 -4 -32 -14 2 -11 -6
-12 -33 -8 -20 3 -48 1 -61 -5 -20 -9 -27 -9 -34 1 -4 8 -13 11 -19 7 -6 -4
-48 -13 -93 -21 -134 -23 -142 -25 -155 -42 -11 -14 -16 -15 -38 -3 -20 11
-30 11 -48 1 -28 -15 -52 -17 -97 -6 -19 4 -32 4 -27 -1 4 -4 -22 -17 -58 -29
-36 -11 -63 -24 -59 -28 4 -4 2 -7 -4 -7 -6 0 -14 5 -17 10 -9 15 -25 12 -25
-5 0 -11 -12 -15 -40 -16 -61 -3 -65 -3 -71 -12 -4 -5 -15 1 -27 13 l-20 21
-19 -20 c-15 -16 -27 -20 -51 -15 -18 4 -32 10 -32 15 0 5 -9 9 -20 9 -11 0
-20 -4 -20 -10 0 -17 -18 -11 -23 8 -4 16 -5 16 -6 0 -1 -21 -36 -25 -45 -5
-5 9 -7 9 -12 -1 -3 -6 -10 -9 -16 -6 -6 4 -8 -1 -3 -15 3 -11 3 -21 -2 -21
-14 0 -38 19 -39 30 -3 21 -4 22 -18 10 -8 -6 -14 -17 -12 -23 1 -7 1 -9 -1
-4 -7 11 -83 9 -83 -3 0 -5 -7 -10 -15 -10 -8 0 -15 7 -15 15 0 10 -10 15 -30
15 -22 0 -28 -4 -24 -15 7 -17 -13 -20 -50 -6 -18 7 -28 6 -36 -4 -8 -10 -51
-13 -183 -14 -95 0 -192 -3 -217 -6 -25 -3 -74 -7 -110 -9 -36 -2 -93 -7 -127
-10 -36 -3 -64 -2 -68 4 -4 6 -13 6 -23 1 -9 -5 -30 -14 -45 -20 -22 -9 -27
-16 -22 -31 3 -11 3 -25 -2 -32 -5 -9 -10 -1 -13 21 -4 26 -11 35 -27 37 -15
3 -23 -1 -23 -11 0 -8 -6 -12 -14 -9 -8 3 -19 -8 -29 -28 -10 -20 -17 -26 -17
-15 0 20 -11 22 -27 6 -13 -13 -6 -39 15 -55 11 -8 12 -13 3 -18 -6 -4 -19 0
-28 9 -20 21 -74 13 -120 -18 -26 -17 -33 -29 -33 -55 0 -25 -5 -35 -19 -39
-13 -3 -22 -17 -26 -44 -6 -36 -13 -43 -41 -40 -10 1 -38 -69 -49 -127 -7 -34
-24 -44 -26 -14 0 14 -11 3 -10 -12 0 -3 -16 -22 -34 -42 -19 -20 -32 -41 -29
-45 2 -4 -4 -16 -14 -26 -11 -10 -25 -28 -31 -40 -6 -13 -18 -23 -26 -23 -9 0
-15 -10 -15 -25 0 -18 -7 -26 -25 -31 -14 -3 -22 -10 -19 -15 3 -5 -2 -19 -10
-30 -14 -20 -23 -22 -108 -20 -51 1 -97 6 -101 10 -4 4 -13 49 -19 99 -6 51
-15 92 -20 92 -4 0 -7 -6 -5 -13 1 -7 -8 -11 -23 -10 -14 1 -41 3 -60 4 -19 1
-55 -2 -79 -6 -42 -8 -44 -7 -38 14 5 20 3 22 -20 16 -14 -3 -32 -13 -40 -20
-8 -8 -29 -16 -46 -17 -41 -2 -78 -5 -96 -7 -7 0 -11 -7 -8 -14 3 -8 -3 -14
-14 -14 -12 -1 -19 5 -19 15 0 20 -37 27 -57 11 -6 -6 -17 -8 -22 -5 -5 4 -12
3 -14 -1 -3 -5 -43 -8 -89 -8 -45 0 -86 -4 -91 -10 -4 -6 -11 -3 -18 8 -6 10
-23 23 -37 28 -26 10 -26 11 -8 25 11 8 26 14 34 14 12 0 12 -2 1 -17 -13 -15
-10 -16 29 -11 32 5 44 2 51 -9 6 -12 12 -13 29 -4 11 6 30 11 41 11 12 0 21
3 21 8 0 4 20 12 45 18 25 6 45 7 45 2 0 -4 7 -5 15 -2 8 4 15 1 15 -5 0 -12
36 -15 43 -3 2 4 2 1 1 -6 -2 -6 3 -12 11 -12 8 0 15 5 15 11 0 8 13 10 38 6
20 -2 48 -2 62 2 l25 7 -23 12 c-14 8 -22 9 -22 2 0 -5 -5 -10 -12 -10 -6 0
-1 11 12 25 24 25 50 33 50 15 0 -5 4 -10 8 -10 5 0 8 13 8 29 0 20 -4 27 -13
24 -7 -3 -10 -9 -7 -14 6 -10 -29 -13 -38 -3 -3 3 -4 13 -1 23 3 14 12 17 35
15 34 -4 71 12 66 28 -6 16 -48 17 -48 1 0 -7 -11 -13 -25 -13 -14 0 -25 2
-25 5 0 12 24 55 32 55 4 0 8 4 8 9 0 16 -49 -13 -54 -31 -5 -20 -52 -42 -68
-32 -6 4 -14 1 -18 -6 -11 -18 -50 -23 -50 -7 0 8 -3 7 -10 -3 -7 -12 -12 -12
-29 4 -18 17 -19 17 -24 -1 -3 -12 -5 -9 -6 10 0 15 -7 27 -13 27 -7 1 -2 7
12 15 41 23 0 18 -52 -7 -49 -24 -60 -41 -32 -52 14 -5 14 -9 -1 -33 -15 -26
-21 -28 -75 -26 -33 0 -76 7 -97 14 -21 7 -65 12 -98 12 -50 -1 -214 21 -220
30 -1 1 -8 11 -14 22 -9 14 -11 15 -7 3 3 -10 1 -20 -4 -23 -18 -11 -10 38 8
51 14 10 15 15 4 25 -10 11 -12 9 -12 -7 -1 -18 -1 -18 -11 -1 -7 13 -7 22 0
31 6 7 8 16 4 19 -3 4 -7 19 -9 34 -5 57 -27 139 -45 174 -10 20 -19 44 -19
53 0 9 -7 16 -15 16 -8 0 -15 -7 -15 -15 0 -20 -19 -19 -27 1 -4 12 -8 13 -14
3 -6 -10 -11 -10 -23 0 -9 8 -16 19 -16 26 0 9 -25 12 -90 11 -49 -1 -90 -4
-90 -8 0 -14 -25 -8 -78 17 -29 14 -58 25 -64 25 -19 0 -78 64 -78 84 0 9 -11
38 -25 64 -14 26 -25 53 -25 61 0 8 -7 11 -17 8 -83 -26 -136 -37 -180 -37
-34 0 -53 -4 -53 -12 0 -6 -3 -9 -6 -6 -3 3 -28 -2 -56 -13 -62 -22 -90 -15
-197 55 -77 49 -97 52 -136 21 -14 -12 -16 -18 -7 -21 6 -3 12 -16 12 -28 0
-17 9 -24 45 -35 25 -7 45 -19 45 -26 0 -21 29 -40 42 -27 6 6 17 8 24 5 8 -3
14 1 14 8 0 12 2 12 9 0 5 -8 11 -9 15 -3 4 7 17 1 32 -13 15 -14 30 -22 35
-19 5 3 9 -4 9 -15 0 -11 10 -26 22 -32 14 -8 18 -14 10 -17 -16 -5 -15 -32 2
-51 13 -14 12 -19 -1 -36 -13 -16 -15 -17 -10 -2 4 11 1 17 -8 17 -8 0 -15 -5
-15 -11 0 -5 -5 -7 -12 -3 -8 5 -9 2 -5 -10 4 -10 7 -23 7 -31 0 -19 81 -27
101 -9 9 8 23 12 31 9 8 -3 28 1 44 10 33 17 104 20 104 5 0 -5 -5 -9 -12 -7
-6 1 -14 -6 -16 -16 -5 -22 16 -22 42 0 14 12 13 9 -4 -10 -20 -23 -31 -27
-53 -23 -19 4 -30 1 -33 -9 -4 -8 -15 -15 -26 -15 -17 0 -18 -3 -8 -15 7 -8
10 -21 7 -29 -8 -20 3 -27 24 -15 11 5 19 18 19 29 0 42 110 58 116 17 4 -31
13 -32 42 -4 17 17 39 27 57 27 27 0 28 -1 9 -15 -10 -8 -27 -15 -36 -15 -35
0 -17 -20 17 -20 23 0 38 6 42 16 3 8 12 13 20 10 7 -3 16 1 19 9 10 24 22 17
16 -10 -5 -31 10 -33 23 -3 6 12 17 23 25 26 9 2 11 0 5 -5 -9 -7 -35 -58 -35
-68 0 -12 50 -4 50 8 0 6 9 1 19 -13 27 -34 16 -43 -45 -37 -29 3 -53 2 -53
-1 4 -25 -3 -33 -21 -27 -12 4 -26 0 -35 -9 -19 -19 -19 -36 0 -36 13 0 20
-18 16 -42 -2 -13 23 -9 47 8 19 13 26 13 38 3 14 -11 12 -15 -13 -28 -32 -17
-144 -42 -155 -35 -14 9 2 24 17 17 8 -3 15 0 15 6 0 6 6 11 14 11 8 0 16 7
20 15 3 8 2 15 -2 15 -4 0 -13 13 -19 30 -12 31 -43 42 -43 15 0 -17 -27 -20
-49 -6 -12 8 -12 13 -3 24 17 20 -16 33 -36 14 -12 -12 -10 -17 13 -35 l26
-21 -30 -16 c-17 -8 -31 -19 -31 -23 1 -12 24 -38 40 -45 15 -5 -93 -2 -120 5
-11 2 -14 -5 -11 -30 2 -31 1 -33 -26 -30 -22 2 -29 9 -31 31 -2 15 1 27 7 27
6 0 11 9 11 21 0 17 6 20 32 19 18 -1 38 -1 43 0 6 1 17 2 26 1 9 -1 19 5 22
12 4 11 0 13 -15 9 -11 -3 -24 1 -29 9 -8 12 -10 12 -19 -1 -6 -9 -21 -14 -45
-11 -60 5 -113 -8 -120 -30 -4 -12 -15 -19 -31 -19 -35 0 -29 -17 11 -30 41
-13 42 -21 14 -66 -23 -37 -55 -48 -44 -15 4 15 0 20 -17 23 -15 2 -22 9 -20
20 3 21 -8 28 -54 32 -19 1 -40 9 -44 17 -7 11 -12 11 -21 2 -9 -9 -18 -9 -32
-2 -31 17 -43 -5 -16 -30 29 -26 18 -39 -15 -17 -57 37 -56 40 -56 -254 l0
-270 960 0 c774 0 960 2 960 13 0 7 -15 19 -32 26 -30 13 -31 14 -11 18 12 2
32 -1 44 -7 15 -9 24 -9 32 -1 14 14 27 14 27 1 0 -5 -7 -10 -16 -10 -11 0
-14 -5 -10 -16 3 -9 6 -18 6 -20 0 -2 111 -4 248 -4 229 0 305 8 259 26 -22 8
-22 20 0 28 10 4 20 1 26 -9 7 -14 11 -13 32 3 16 12 34 17 54 14 41 -6 40
-22 -2 -22 -30 0 -57 -14 -57 -30 0 -3 29 -6 63 -5 56 0 63 2 59 18 -6 22 4
22 35 -3 29 -22 92 -27 111 -8 9 9 12 9 12 0 0 -9 272 -12 1194 -12 l1195 0 3
22 c5 32 28 35 28 4 l0 -26 390 0 391 0 -1 250 -1 250 -37 0 c-20 0 -44 5 -52
10 -11 7 -6 10 22 10 74 0 68 -76 68 805 0 787 0 793 -20 788 -24 -6 -40 25
-19 38 11 7 11 9 -2 9 -9 0 -20 7 -23 16 -3 8 -10 12 -16 9 -5 -3 -10 -1 -10
5 0 6 -4 9 -9 5 -6 -3 -14 2 -19 11 -6 11 -12 13 -16 6 -4 -8 -13 -5 -26 8
-24 24 -46 26 -54 5 -3 -8 -10 -15 -17 -15 -6 0 -9 6 -6 14 3 7 -1 26 -9 42
-9 16 -17 45 -18 64 -3 29 -8 36 -30 38 -18 2 -26 -1 -26 -12z m-4256 -1821
c9 -13 16 -38 16 -55 0 -16 5 -30 10 -30 6 0 10 -7 10 -14 0 -11 14 -16 48
-18 39 -2 47 -6 47 -23 0 -13 7 -20 20 -21 11 0 35 -1 53 -2 21 -1 31 -6 27
-13 -4 -6 -22 -8 -45 -4 -27 5 -46 2 -62 -9 -16 -10 -28 -12 -38 -6 -26 16
-50 12 -44 -7 5 -14 4 -15 -4 -4 -6 9 -19 11 -41 6 -20 -4 -31 -3 -31 5 0 6
-17 11 -42 10 -24 0 -63 0 -88 1 -36 1 -39 2 -15 6 27 5 28 6 10 13 -18 8 -17
9 7 9 31 1 46 18 21 24 -13 2 -7 7 17 15 32 10 33 11 13 17 -26 8 -30 23 -8
31 8 4 12 10 9 15 -3 5 0 9 5 9 6 0 11 -5 11 -11 0 -5 5 -7 11 -3 8 4 8 9 0
17 -15 15 6 37 36 37 18 0 24 4 19 15 -9 24 10 17 28 -10z"/>
</g>
</svg>
